<svg xmlns="http://www.w3.org/2000/svg" xmlns:xlink="http://www.w3.org/1999/xlink" viewBox="0 0 1928.3 1080.51"><defs><style>.cls-1{fill:#8ed1e3;}.cls-2,.cls-63,.cls-73,.cls-74,.cls-75,.cls-78,.cls-79,.cls-82,.cls-84,.cls-85{fill:#fff;}.cls-3{fill:#f1db3f;}.cls-4{fill:#f7c23c;}.cls-5{fill:#f1bc66;}.cls-6{fill:#d79e41;}.cls-7{fill:#88631b;}.cls-8{fill:#ebb662;}.cls-9{fill:#85611b;}.cls-10{fill:#b68126;}.cls-11{fill:#c4d227;}.cls-12{fill:#794519;}.cls-13{fill:url(#linear-gradient);}.cls-14{fill:url(#linear-gradient-2);}.cls-15{fill:#b58026;}.cls-16{fill:#7e5513;}.cls-17{fill:#a77619;}.cls-18{fill:#c38f37;}.cls-19{fill:url(#radial-gradient);}.cls-20{fill:#99c71a;}.cls-21{fill:url(#radial-gradient-2);}.cls-22{fill:url(#radial-gradient-3);}.cls-23{fill:url(#radial-gradient-4);}.cls-24{fill:#85601b;}.cls-25{fill:url(#radial-gradient-5);}.cls-26{fill:#a2d2d4;}.cls-27{fill:url(#radial-gradient-6);}.cls-28{fill:url(#radial-gradient-7);}.cls-29{fill:url(#radial-gradient-8);}.cls-30{fill:url(#radial-gradient-9);}.cls-31{fill:url(#radial-gradient-10);}.cls-32{fill:url(#radial-gradient-11);}.cls-33{fill:url(#linear-gradient-3);}.cls-34{fill:#ffd710;}.cls-35{fill:#ffe969;}.cls-36,.cls-76,.cls-77,.cls-83{fill:none;}.cls-36{stroke:#ff9803;stroke-width:0.77px;}.cls-36,.cls-39,.cls-52,.cls-61,.cls-63,.cls-73,.cls-74,.cls-75,.cls-76,.cls-77,.cls-78,.cls-79,.cls-82,.cls-83,.cls-84,.cls-85{stroke-miterlimit:10;}.cls-37{fill:#ffb94a;}.cls-38{fill:#d0fffe;}.cls-39{fill:#5fdadd;stroke:#fff;stroke-width:1.31px;}.cls-40,.cls-52,.cls-61{opacity:0.67;}.cls-41{fill:#addbff;}.cls-42{fill:#9cceff;}.cls-43{fill:#89f4c6;}.cls-44{fill:#4cf2a6;}.cls-45{fill:#ffcee2;}.cls-46{fill:#fc9fca;}.cls-47{fill:#89daf7;}.cls-48{fill:#4cb6d3;}.cls-49{fill:#50d699;}.cls-50{fill:#ffdbcb;}.cls-51{fill:#fcab8b;}.cls-52{fill:#fc7777;stroke:#ff174e;}.cls-53{fill:#fbffd6;}.cls-54{fill:#f6fc7e;}.cls-55{fill:#c5ff95;}.cls-56{fill:#a8f95a;}.cls-57{fill:#ffc8ec;}.cls-58{fill:#f761d0;}.cls-59{fill:#58f4ad;}.cls-60{fill:#ffb0e7;}.cls-61{fill:#ffb07b;stroke:#ffa348;stroke-width:0.63px;}.cls-62{fill:#ea6eca;}.cls-63,.cls-73,.cls-74,.cls-75,.cls-76,.cls-77,.cls-78,.cls-79,.cls-82,.cls-83,.cls-84,.cls-85{stroke:#000;}.cls-64{fill:#02590e;}.cls-65{fill:#098122;}.cls-66{fill:#016715;}.cls-67{fill:#096f25;}.cls-68{fill:#96a027;}.cls-69{fill:url(#radial-gradient-12);}.cls-70{fill:url(#radial-gradient-13);}.cls-71{fill:url(#radial-gradient-14);}.cls-72{fill:url(#radial-gradient-15);}.cls-73{stroke-width:0.16px;}.cls-74,.cls-83{stroke-width:0.24px;}.cls-75,.cls-77{stroke-width:0.48px;}.cls-76{stroke-width:0.37px;}.cls-78{stroke-width:0.52px;}.cls-79{stroke-width:0.46px;}.cls-80{fill:url(#radial-gradient-16);}.cls-81{fill:url(#radial-gradient-17);}.cls-82{stroke-width:0.11px;}.cls-84{stroke-width:0.23px;}.cls-85{stroke-width:0.47px;}</style><linearGradient id="linear-gradient" x1="818.71" y1="495.89" x2="858.15" y2="429.94" gradientUnits="userSpaceOnUse"><stop offset="0.08" stop-color="#668834"/><stop offset="0.26" stop-color="#78950e"/><stop offset="0.84" stop-color="#99c71a"/><stop offset="1" stop-color="#b9d64d"/></linearGradient><linearGradient id="linear-gradient-2" x1="740.24" y1="497.7" x2="794.83" y2="450.18" gradientUnits="userSpaceOnUse"><stop offset="0.14" stop-color="#668834"/><stop offset="0.41" stop-color="#78950e"/><stop offset="0.84" stop-color="#99c71a"/><stop offset="1" stop-color="#b9d64d"/></linearGradient><radialGradient id="radial-gradient" cx="1139.31" cy="450.21" fx="1150.1702094418195" fy="496.7718361020662" r="47.81" gradientTransform="translate(-116.38 -9.56) scale(1.17 0.9)" gradientUnits="userSpaceOnUse"><stop offset="0" stop-color="#b9d64d"/><stop offset="0.04" stop-color="#99c71a"/><stop offset="1" stop-color="#5c7209"/></radialGradient><radialGradient id="radial-gradient-2" cx="1103.04" cy="449.84" fx="1113.4106265567777" fy="459.99769286153196" r="14.89" gradientTransform="translate(-116.38 -17.61) scale(1.17 0.92)" gradientUnits="userSpaceOnUse"><stop offset="0.03" stop-color="#b9d64d"/><stop offset="0.11" stop-color="#99c71a"/><stop offset="0.91" stop-color="#5c7209"/></radialGradient><radialGradient id="radial-gradient-3" cx="1114" cy="455.62" r="6.84" gradientTransform="translate(-116.38 -174.98) scale(1.17 1.27)" gradientUnits="userSpaceOnUse"><stop offset="0.13" stop-color="#99c71a"/><stop offset="0.79" stop-color="#5c7209"/></radialGradient><radialGradient id="radial-gradient-4" cx="1057.91" cy="480.7" r="10.02" gradientTransform="translate(-116.38 -174.98) scale(1.17 1.27)" gradientUnits="userSpaceOnUse"><stop offset="0.26" stop-color="#99c71a"/><stop offset="0.91" stop-color="#75910d"/></radialGradient><radialGradient id="radial-gradient-5" cx="1190.19" cy="421.6" fx="1182.562241878753" fy="401.9833212777061" r="49.45" gradientTransform="translate(-116.38 -174.98) scale(1.17 1.27)" gradientUnits="userSpaceOnUse"><stop offset="0.39" stop-color="#b9d64d"/><stop offset="0.84" stop-color="#99c71a"/><stop offset="0.98" stop-color="#5c7209"/></radialGradient><radialGradient id="radial-gradient-6" cx="1090.62" cy="385.22" fx="1067.379788298486" fy="357.7546545123997" r="56.85" gradientTransform="translate(-460.81 -308.51) scale(1.47 1.62)" gradientUnits="userSpaceOnUse"><stop offset="0.12" stop-color="#b9d64d"/><stop offset="0.68" stop-color="#99c71a"/><stop offset="0.9" stop-color="#5c7209"/></radialGradient><radialGradient id="radial-gradient-7" cx="1312.19" cy="552.64" fx="1300.4265969398753" fy="527.6135457991278" r="30.41" gradientTransform="translate(440.47 258.42) scale(0.67 0.67)" gradientUnits="userSpaceOnUse"><stop offset="0.13" stop-color="#b9d64d"/><stop offset="0.59" stop-color="#99c71a"/><stop offset="0.98" stop-color="#75910d"/></radialGradient><radialGradient id="radial-gradient-8" cx="1287.96" cy="570.7" fy="579.5028019797084" r="10.65" gradientTransform="translate(440.47 258.42) scale(0.67 0.67)" gradientUnits="userSpaceOnUse"><stop offset="0.56" stop-color="#99c71a"/><stop offset="0.98" stop-color="#75910d"/></radialGradient><radialGradient id="radial-gradient-9" cx="1296.74" cy="575.58" r="5.27" gradientTransform="translate(440.47 258.42) scale(0.67 0.67)" gradientUnits="userSpaceOnUse"><stop offset="0" stop-color="#b9d64d"/><stop offset="0.17" stop-color="#99c71a"/><stop offset="0.98" stop-color="#75910d"/></radialGradient><radialGradient id="radial-gradient-10" cx="1251.68" cy="596.59" r="5.67" gradientTransform="matrix(0.01, -0.67, 1.79, 0.04, 193.6, 1471.67)" gradientUnits="userSpaceOnUse"><stop offset="0.34" stop-color="#b9d64d"/><stop offset="0.61" stop-color="#99c71a"/><stop offset="0.83" stop-color="#75910d"/></radialGradient><radialGradient id="radial-gradient-11" cx="1266.5" cy="529.2" fx="1252.9162039581709" fy="482.7663369470921" r="53.16" gradientTransform="translate(440.47 294.69) scale(0.67 0.6)" gradientUnits="userSpaceOnUse"><stop offset="0.3" stop-color="#b9d64d"/><stop offset="0.78" stop-color="#99c71a"/><stop offset="0.94" stop-color="#5c7209"/></radialGradient><linearGradient id="linear-gradient-3" x1="1317.4" y1="685.75" x2="1339.32" y2="666.67" xlink:href="#linear-gradient-2"/><radialGradient id="radial-gradient-12" cx="1276.8" cy="555.69" fx="1256.13621741069" fy="547.4055332918725" r="33.64" gradientTransform="matrix(0.09, -1, 1.29, 0.12, 443.12, 1761.39)" gradientUnits="userSpaceOnUse"><stop offset="0.5" stop-color="#075119"/><stop offset="0.91" stop-color="#096f25"/></radialGradient><radialGradient id="radial-gradient-13" cx="1249.95" cy="564.15" fx="1205.853265875245" fy="520.5777254686087" r="65.24" gradientTransform="translate(31.87 131.78) rotate(4.79) scale(1 0.58)" gradientUnits="userSpaceOnUse"><stop offset="0.58" stop-color="#098122"/><stop offset="0.77" stop-color="#002807"/></radialGradient><radialGradient id="radial-gradient-14" cx="1284.55" cy="564.91" fx="1264.4688636964063" r="20.73" gradientTransform="matrix(-0.11, 0.99, -0.94, -0.11, 1961.53, -651.26)" gradientUnits="userSpaceOnUse"><stop offset="0.7" stop-color="#96a027"/><stop offset="0.91" stop-color="#707516"/></radialGradient><radialGradient id="radial-gradient-15" cx="1261.2" cy="569.21" fy="591.6267539221975" r="23" gradientUnits="userSpaceOnUse"><stop offset="0.58" stop-color="#098122"/><stop offset="0.81" stop-color="#002807"/></radialGradient><radialGradient id="radial-gradient-16" cx="716.63" cy="568.19" r="11.37" gradientTransform="translate(-32.04 45.98) rotate(-3.69)" gradientUnits="userSpaceOnUse"><stop offset="0.79" stop-color="#fff"/><stop offset="1"/></radialGradient><radialGradient id="radial-gradient-17" cx="736.19" cy="568.07" fy="559.8600868195847" r="10.46" gradientTransform="matrix(1, -0.06, 0.06, 0.98, -31, 56.13)" gradientUnits="userSpaceOnUse"><stop offset="0.77" stop-color="#fff"/><stop offset="1"/></radialGradient></defs><g id="Layer_21" data-name="Layer 21"><g id="Layer_8" data-name="Layer 8"><rect class="cls-1" x="8.3" y="0.22" width="1920" height="1080"/></g><g id="Layer_11" data-name="Layer 11"><path class="cls-2" d="M1828.78,877.32c0,11-12.67,19.84-28.31,19.84-1.24,0-2.45,0-3.65-.16h-93.38c-10,0-18.18-6-18.18-13.48S1693.4,870,1703.44,870a22.37,22.37,0,0,1,11.37,3,20.28,20.28,0,0,1-.31-3.58c0-15.32,16.74-27.74,37.4-27.74,16.13,0,29.87,7.58,35.12,18.19a38,38,0,0,1,13.45-2.38C1816.11,857.49,1828.78,866.37,1828.78,877.32Z" transform="translate(7.3 0.22)"/><path class="cls-2" d="M1013.26,155.73c0,8.08-12.84,14.78-29.68,16.05-1.89.14-3.83.22-5.81.22H740c-1.76.14-3.58.22-5.42.22-17.35,0-31.41-6.48-31.41-14.47s14.06-14.47,31.41-14.47A64,64,0,0,1,747,144.46a12,12,0,0,1-.67-3.92c0-14.54,27.18-26.32,60.72-26.32s60.73,11.78,60.73,26.32a8.92,8.92,0,0,1-.07,1.16c5.9-6.7,20.16-11.41,36.8-11.41,21.93,0,39.7,8.18,39.7,18.29a8.82,8.82,0,0,1-.14,1.54c0,.21-.08.42-.14.63a9.29,9.29,0,0,0-1.49,3.24,10.39,10.39,0,0,0,1.49-3.24c.15-.22.3-.42.47-.63,5-6.23,18-10.66,33.33-10.66C997.37,139.46,1013.26,146.74,1013.26,155.73Z" transform="translate(7.3 0.22)"/><path class="cls-3" d="M1013.26,214.76a76,76,0,1,1,0-150.82Z" transform="translate(7.3 0.22)"/><ellipse class="cls-3" cx="1020.56" cy="139.57" rx="66.5" ry="75.41"/><path class="cls-4" d="M1079.76,139.35a76,76,0,0,1-85.5,75.41,76,76,0,0,0,0-150.82,76,76,0,0,1,85.5,75.41Z" transform="translate(7.3 0.22)"/><path class="cls-2" d="M1277.74,201.66c0,16.34-18.91,29.58-42.21,29.58-1.85,0-3.67-.08-5.45-.24H1090.84c-15,0-27.1-9-27.1-20.1s12.13-20.1,27.1-20.1a33.25,33.25,0,0,1,17,4.42,30.47,30.47,0,0,1-.47-5.34c0-22.84,25-41.36,55.77-41.36,24.05,0,44.54,11.29,52.36,27.12a57,57,0,0,1,20.07-3.55C1258.83,172.09,1277.74,185.33,1277.74,201.66Z" transform="translate(7.3 0.22)"/><path class="cls-2" d="M834.77,321.73c0,8.08-12.84,14.78-29.68,16-1.89.14-3.83.22-5.81.22H561.53c-1.76.14-3.57.22-5.42.22-17.34,0-31.41-6.48-31.41-14.47s14.07-14.47,31.41-14.47a64,64,0,0,1,12.44,1.18,12.26,12.26,0,0,1-.66-3.92c0-14.54,27.18-26.32,60.72-26.32s60.72,11.78,60.72,26.32a8.92,8.92,0,0,1-.07,1.16c5.9-6.7,20.16-11.41,36.8-11.41,21.93,0,39.7,8.18,39.7,18.29a8,8,0,0,1-.14,1.54c0,.21-.08.42-.14.63A9.29,9.29,0,0,0,764,320a10.39,10.39,0,0,0,1.49-3.24,7,7,0,0,1,.48-.63c5-6.23,18-10.66,33.32-10.66C818.89,305.46,834.77,312.74,834.77,321.73Z" transform="translate(7.3 0.22)"/><path class="cls-2" d="M1453,79.59c0,10.25-11.86,18.56-26.48,18.56q-1.74,0-3.42-.15h-87.36c-9.39,0-17-5.64-17-12.61s7.61-12.61,17-12.61a20.83,20.83,0,0,1,10.64,2.77,19.5,19.5,0,0,1-.29-3.35c0-14.33,15.67-25.95,35-25.95,15.08,0,27.94,7.09,32.85,17A35.87,35.87,0,0,1,1426.52,61C1441.14,61,1453,69.35,1453,79.59Z" transform="translate(7.3 0.22)"/><path class="cls-2" d="M672.75,573.12a21.93,21.93,0,0,1-18.39,21.59,22.42,22.42,0,0,1-3.6.29H503.44a19.46,19.46,0,1,1-3.36-38.63,19.27,19.27,0,0,1,7.71,1.6,34.06,34.06,0,0,1-.42-5.27c0-19.56,16.85-35.41,37.63-35.41s37.63,15.85,37.63,35.41c0,.52,0,1,0,1.55A24.6,24.6,0,0,1,630,563.5q0,1.05-.09,2.07c0,.29,0,.57-.09.85a21.75,21.75,0,0,0-.92,4.37,23.56,23.56,0,0,0,.92-4.37c.1-.29.19-.57.3-.85a22,22,0,0,1,42.64,7.55Z" transform="translate(7.3 0.22)"/><path class="cls-2" d="M1047.47,542.73c0,8.08-12.85,14.78-29.69,16-1.89.14-3.83.22-5.81.22H774.23c-1.76.14-3.58.22-5.43.22-17.34,0-31.4-6.48-31.4-14.47s14.06-14.47,31.4-14.47a64,64,0,0,1,12.44,1.18,12.26,12.26,0,0,1-.66-3.92c0-14.54,27.18-26.32,60.72-26.32S902,513,902,527.54a11.12,11.12,0,0,1-.06,1.16c5.89-6.7,20.15-11.41,36.79-11.41,21.93,0,39.7,8.18,39.7,18.29a8,8,0,0,1-.14,1.54,4.75,4.75,0,0,1-.14.63,9.47,9.47,0,0,0-1.49,3.24,10.17,10.17,0,0,0,1.49-3.24c.15-.22.31-.42.48-.63,5-6.23,18-10.66,33.32-10.66C1031.58,526.46,1047.47,533.74,1047.47,542.73Z" transform="translate(7.3 0.22)"/><path class="cls-2" d="M1281.94,588.66c0,16.34-18.9,29.58-42.21,29.58-1.85,0-3.66-.08-5.45-.24H1095c-15,0-27.1-9-27.1-20.1s12.13-20.1,27.1-20.1a33.31,33.31,0,0,1,17,4.42,30.47,30.47,0,0,1-.47-5.34c0-22.84,25-41.36,55.77-41.36,24,0,44.54,11.29,52.36,27.12a56.86,56.86,0,0,1,20.06-3.55C1263,559.09,1281.94,572.33,1281.94,588.66Z" transform="translate(7.3 0.22)"/><path class="cls-2" d="M412.2,155.59c0,10.25-11.86,18.56-26.48,18.56q-1.74,0-3.42-.15H295c-9.4,0-17-5.64-17-12.61s7.61-12.61,17-12.61a20.88,20.88,0,0,1,10.64,2.77,18.55,18.55,0,0,1-.3-3.35c0-14.33,15.67-25.95,35-25.95,15.09,0,28,7.09,32.85,17A35.92,35.92,0,0,1,385.72,137C400.34,137,412.2,145.35,412.2,155.59Z" transform="translate(7.3 0.22)"/><path class="cls-2" d="M241,375.12a21.93,21.93,0,0,1-18.39,21.59,22.42,22.42,0,0,1-3.6.29H71.7a19.46,19.46,0,1,1-3.37-38.63,19.28,19.28,0,0,1,7.72,1.6,32.87,32.87,0,0,1-.42-5.27c0-19.56,16.85-35.41,37.63-35.41s37.63,15.85,37.63,35.41c0,.52,0,1,0,1.55a24.6,24.6,0,0,1,47.4,9.25q0,1-.09,2.07c0,.29,0,.57-.09.85a21.75,21.75,0,0,0-.92,4.37,23.56,23.56,0,0,0,.92-4.37c.1-.29.19-.57.3-.85A22,22,0,0,1,241,375.12Z" transform="translate(7.3 0.22)"/><path class="cls-2" d="M358.55,702.66c0,16.34-18.9,29.58-42.21,29.58-1.85,0-3.66-.08-5.45-.24H171.65c-15,0-27.1-9-27.1-20.1s12.13-20.1,27.1-20.1a33.25,33.25,0,0,1,17,4.42,31.46,31.46,0,0,1-.46-5.34c0-22.84,25-41.36,55.77-41.36,24,0,44.54,11.29,52.36,27.12a56.86,56.86,0,0,1,20.06-3.55C339.65,673.09,358.55,686.33,358.55,702.66Z" transform="translate(7.3 0.22)"/><path class="cls-2" d="M184.84,1058.12a21.93,21.93,0,0,1-18.39,21.59,22.61,22.61,0,0,1-3.6.29H15.52a19.46,19.46,0,1,1-3.36-38.63,19.24,19.24,0,0,1,7.71,1.6,34.06,34.06,0,0,1-.41-5.27c0-19.56,16.84-35.41,37.63-35.41s37.62,15.85,37.62,35.41c0,.52,0,1,0,1.55a24.61,24.61,0,0,1,47.41,9.25q0,1.05-.09,2.07c0,.29-.05.57-.09.85a21.75,21.75,0,0,0-.92,4.37,24.4,24.4,0,0,0,.92-4.37c.09-.29.19-.57.3-.85a22,22,0,0,1,42.64,7.55Z" transform="translate(7.3 0.22)"/><path class="cls-2" d="M635.55,934.73c0,8.08-12.84,14.78-29.68,16-1.89.14-3.83.22-5.81.22H362.31c-1.76.14-3.57.22-5.42.22-17.34,0-31.41-6.48-31.41-14.47s14.07-14.47,31.41-14.47a64,64,0,0,1,12.44,1.18,12,12,0,0,1-.67-3.92c0-14.54,27.19-26.32,60.73-26.32s60.72,11.78,60.72,26.32a8.92,8.92,0,0,1-.07,1.16c5.9-6.7,20.16-11.41,36.8-11.41,21.93,0,39.7,8.18,39.7,18.29a8,8,0,0,1-.14,1.54c0,.21-.08.42-.14.63a9.29,9.29,0,0,0-1.49,3.24,10.39,10.39,0,0,0,1.49-3.24c.15-.22.3-.42.47-.63,5-6.23,18-10.66,33.33-10.66C619.67,918.46,635.55,925.74,635.55,934.73Z" transform="translate(7.3 0.22)"/><path class="cls-2" d="M1096,1007.66c0,16.34-18.9,29.58-42.21,29.58-1.85,0-3.66-.08-5.45-.24H909.13c-15,0-27.1-9-27.1-20.1s12.13-20.1,27.1-20.1a33.25,33.25,0,0,1,17,4.42,30.47,30.47,0,0,1-.46-5.34c0-22.84,25-41.36,55.77-41.36,24,0,44.53,11.29,52.36,27.12a56.86,56.86,0,0,1,20.06-3.55C1077.13,978.09,1096,991.33,1096,1007.66Z" transform="translate(7.3 0.22)"/><path class="cls-2" d="M1707.55,480.66c0,16.34-18.9,29.58-42.21,29.58-1.85,0-3.66-.08-5.45-.24H1520.65c-15,0-27.1-9-27.1-20.1s12.13-20.1,27.1-20.1a33.25,33.25,0,0,1,17,4.42,31.46,31.46,0,0,1-.46-5.34c0-22.84,25-41.36,55.77-41.36,24,0,44.54,11.29,52.36,27.12a56.86,56.86,0,0,1,20.06-3.55C1688.65,451.09,1707.55,464.33,1707.55,480.66Z" transform="translate(7.3 0.22)"/><path class="cls-2" d="M1920.55,630.73c0,8.08-12.84,14.78-29.68,16-1.89.14-3.83.22-5.81.22H1647.31c-1.76.14-3.57.22-5.42.22-17.34,0-31.41-6.48-31.41-14.47s14.07-14.47,31.41-14.47a64,64,0,0,1,12.44,1.18,12,12,0,0,1-.67-3.92c0-14.54,27.19-26.32,60.73-26.32s60.72,11.78,60.72,26.32a8.92,8.92,0,0,1-.07,1.16c5.9-6.7,20.16-11.41,36.8-11.41,21.93,0,39.7,8.18,39.7,18.29a8,8,0,0,1-.14,1.54c0,.21-.08.42-.14.63a9.29,9.29,0,0,0-1.49,3.24,10.39,10.39,0,0,0,1.49-3.24c.15-.22.3-.42.47-.63,5-6.23,18-10.66,33.33-10.66C1904.67,614.46,1920.55,621.74,1920.55,630.73Z" transform="translate(7.3 0.22)"/><path class="cls-2" d="M1707.07,1008.73c0,8.08-12.85,14.78-29.69,16-1.89.14-3.83.22-5.81.22H1433.82c-1.75.14-3.57.22-5.42.22-17.34,0-31.4-6.48-31.4-14.47s14.06-14.47,31.4-14.47a64,64,0,0,1,12.44,1.18,12.26,12.26,0,0,1-.66-3.92c0-14.54,27.18-26.32,60.72-26.32s60.72,11.78,60.72,26.32a11.12,11.12,0,0,1-.06,1.16c5.89-6.7,20.15-11.41,36.79-11.41,21.93,0,39.7,8.18,39.7,18.29a8,8,0,0,1-.14,1.54,4.75,4.75,0,0,1-.14.63,9.29,9.29,0,0,0-1.49,3.24,10.17,10.17,0,0,0,1.49-3.24c.15-.22.31-.42.48-.63,5-6.23,18-10.66,33.32-10.66C1691.18,992.46,1707.07,999.74,1707.07,1008.73Z" transform="translate(7.3 0.22)"/><path class="cls-2" d="M1920.86,171.73c0,8.08-12.84,14.78-29.68,16.05-1.89.14-3.83.22-5.81.22H1647.62c-1.76.14-3.58.22-5.42.22-17.35,0-31.41-6.48-31.41-14.47s14.06-14.47,31.41-14.47a64,64,0,0,1,12.44,1.18,12,12,0,0,1-.67-3.92c0-14.54,27.18-26.32,60.72-26.32s60.73,11.78,60.73,26.32a11.11,11.11,0,0,1-.07,1.16c5.9-6.7,20.15-11.41,36.8-11.41,21.93,0,39.7,8.18,39.7,18.29a8.82,8.82,0,0,1-.14,1.54c0,.21-.08.42-.14.63a9.29,9.29,0,0,0-1.49,3.24,10.39,10.39,0,0,0,1.49-3.24c.15-.22.3-.42.47-.63,5-6.23,18-10.66,33.33-10.66C1905,155.46,1920.86,162.74,1920.86,171.73Z" transform="translate(7.3 0.22)"/></g><g id="Layer_1" data-name="Layer 1"><path class="cls-5" d="M988.42,937.14c-4.8.24-9.78.39-14.87.43,0,0-56.23.45-100.12-13.06C813.68,906.12,751.67,749,742.27,568.92c-2-38.52-1.19-69.43-.48-86.24,12.38,17.95,23.18,20,28,20.25,9.17.41,17.52-5,48.3-38.94,23.3-25.74,31.25-36.73,32.72-35.84,2,1.22-8.46,24.89-64.14,124.64a22.12,22.12,0,0,0-.34,3C782.8,750.63,840.44,900.52,910,924.05,937.23,933.28,969.56,936.21,988.42,937.14Z" transform="translate(7.3 0.22)"/><path class="cls-6" d="M994.93,933.61c-1.68.54-4.6,1.39-8.61,2.43-18.87-.94-51.14-3.87-78.37-13.09C838.44,899.42,780.8,749.53,784.37,554.69a13.08,13.08,0,0,1,.34-3c8-17.88,15.33-32.17,20.51-42,12.07-22.78,14.58-24.56,24.93-45.18,11.65-23.2,10.59-25.19,18.7-37.39,7.87-11.85,11-13.26,21.81-29.6,9.05-13.76,9.48-16.83,12.46-17.14,7.12-.73,11,19.78,29.65,54.44,7.71,14.36,11.35,19,15.53,18.79,8.34-.35,16.81-19.59,21.82-31.16,3.5-8.09,5.46-15.35,9.34-15.58,4.33-.27,8,8.33,9.2,10.83,14.05,30.57,70.56,80.84,97.22,70.09,8.42-3.4,9.34-11.11,16.67-10.81,11.12.44,19,18.28,25.94,34A183,183,0,0,1,1121,551.69c0,.28,0,.48,0,.71C1127.41,753.54,1070.29,909.7,994.93,933.61Z" transform="translate(7.3 0.22)"/><path class="cls-7" d="M961.46,407.9q-3.63,19.28-7.79,39-1.15,5.47-2.33,10.9-4.29,24.15-8.57,48.3l-14-37.39c-3.09-10.39-2.7-13.42-1.56-14,.83-.44,1.33.18,3.11,0,3.36-.34,5.68-3.18,9.35-7.79,1.15-1.45,1.71-2.31,2.77-3.76,5.26-7.3,11.48-25.14,12.81-29a9.89,9.89,0,0,1,3.12-4.67A8.74,8.74,0,0,1,961.46,407.9Z" transform="translate(7.3 0.22)"/><path class="cls-7" d="M1073.13,485.54l3.81-3.83c.37-.42,4.15-4.51,9.16-3.7a8.92,8.92,0,0,1,3.91,1.68c-3.4.12-6.23,2-7,4.55a6.89,6.89,0,0,0,1.56,6.23c2,2.3,4.9,2.42,4.89,3.73,0,.94-1.53,1.19-1.78,2.5-.21,1.11.64,2.24,1.56,3.12a13.69,13.69,0,0,1-1.56,3.11c-1.54,2.29-3.13,3.3-4.67,4.68a20.89,20.89,0,0,0-4.68,6.23l9.35-4.67c-.67.69-1.76,1.78-3.11,3.11-3.81,3.72-4.61,4.19-6.24,6.23a36.83,36.83,0,0,0-3.11,4.68s-.85,1.51-1.56,3.11c-2.18,4.93-2.4,10.38-3.82,13.6-1.24,2.8-3.87,6.52-10.2,9.77a27.56,27.56,0,0,0,4.67-10.9c1.27-7-.55-13.92,0-14,.37-.07,1,3.16,1.56,3.11.88-.08-.54-7.58,1.56-17.14.95-4.33,1.91-5.86,1.56-9.34-.39-3.77-1.84-5-1.56-7.79C1067.61,491.55,1068.75,488.71,1073.13,485.54Z" transform="translate(7.3 0.22)"/><path class="cls-7" d="M964.58,415.69c1.66,2.63,3.92,4.83,3.12,6.23-.36.61-1.08.65-1.56,1.56a4,4,0,0,0,0,3.11c1.53,4.72,17.89,13,17.14,15.58-.37,1.29-4.71,1.21-4.68,1.56s7-.46,7.79,1.56c.28.74-.48,1.35-1.56,3.12s-1.78,4.33-3.11,9.34c-1.28,4.79-.9,4.33-1.56,6.24-1.39,4-3.8,8.07-4.67,7.78-1.17-.38,0-8.63,0-10.9,0-.6,0-1.2,0-1.2v-.93c0-2.07.17-2.41,0-2.54-.71-.53-4.29,3.43-4.68,3.11s3.15-3.46,3.12-7.79a12.36,12.36,0,0,0-1.09-4.56,14.59,14.59,0,0,0-2-3.23,24.21,24.21,0,0,0-3.11-3.11c-3.63-3.49-3.62-7.89-4.68-7.79s-1.19,4.67-1.56,4.67c-.92,0-1.77-29.47,0-29.6C962.06,407.85,961.78,411.23,964.58,415.69Z" transform="translate(7.3 0.22)"/><path class="cls-7" d="M845.8,432.53l-24.91,28.4-29.62,30.85-15.06,10.27h4.26l9.61-2.23,20.26-12.47,19.41-17.09,21.1-32.76c7.73-13.84,14-22.48,18.69-28,3.4-4.08,11-12.58,10.91-18.7a10.34,10.34,0,0,1,1.56-6.23c1.31-1.91,3.23-2.94,3.11-3.12s-1.67.4-3.11,1.56c-2.39,1.92-2.62,4.06-4.68,7.79-.45.81-1.33,2.1-3.11,4.67-3,4.38-11.64,15.93-23.37,31.16" transform="translate(7.3 0.22)"/><polygon class="cls-5" points="968.76 408.12 969.85 411.57 971.88 415.91 974.61 419.91 974.99 422.14 973.43 423.7 973.43 426.81 974.99 429.11 978.23 431.98 990.57 442.39 985.9 443.95 993.75 443.95 993.69 445.51 997.94 447.25 984.88 431.35 980.74 424.31 976.57 416.01 973.82 411.48 970.79 408.62 968.76 408.12"/><path class="cls-7" d="M885.12,381.41" transform="translate(7.3 0.22)"/><path class="cls-5" d="M875.91,435.34c3.28-4,.36-7.73,3.62-10.75.78-.73,1.48-1,9.54-2.89h0c-.1,7.49-.16,11.23-.16,11.23h0l-3.13,7.3c-3.74,8.76-4,9.54-3.61,10.76a6.86,6.86,0,0,0,6.42,4.41c4.46-.36,5.22-7.17,8.75-7.22s7.94,6.77,6.74,12.2c-.56,2.49-2.17,4.12-4.42,6.41-3.66,3.74-5.26,3.3-7.86,5.94-3.33,3.37-4.2,7.58-5.38,13.32-1.57,7.61-.22,9.92-2.33,11.64-3.28,2.67-11.33,1-14.2-4.1-2.31-4.08-.74-9.44,1-12.37l.09-.15c3.06-5.14,6.15-5.55,7.46-8.1,1.75-3.41-.51-9-2.89-9.55-1.87-.39-4.51,2.22-7,4.66-.42.41-.71.72-.78.8-6.25,6.71-8.75,12.28-12.38,12.84-4.89.74-11.23-7.65-9.79-10.52.82-1.63,3.68-.46,9.55-2.89a38.07,38.07,0,0,0,6.1-3.36c4.51-2.82,6.76-4.23,7.86-5.94,2.34-3.64,2.41-8.76,1-12.52-1.06-2.91-2.44-3.52-2.09-5.22C868.65,438.36,873,439,875.91,435.34Z" transform="translate(7.3 0.22)"/><path class="cls-5" d="M997.3,465.54c5.44,8.34,15.79,18.7,37.39,26.49a38.45,38.45,0,0,0,17.14,3.11c4.84-.28,8.41-1.52,9.35,0s-1.39,5.6-4.68,7.79c-5.5,3.67-11.73,1.07-12.46,3.12-.58,1.6,2.64,4.89,6.23,6.23,4,1.48,6.4-.13,7.79,1.56s.43,5.55-1.56,7.79c-.68.77-2.79,2.85-9.35,3.12-9.6.39-10.82-3.84-18.69-3.12-2.35.22-5.72,1.18-12.47,3.12-4.75,1.36-5.83,1.87-7.79,1.55-5-.81-10.26-6.13-9.34-10.9.65-3.41,4.21-5.21,6.23-6.23,4.59-2.33,10.27-2.22,14,0,.69.4,1.42.95,1.78,1.21,4,3,4.38,4.86,6,5,2,.19,4.54-2.28,4.67-4.68.17-3-3.51-5.21-7.79-7.79-3-1.82-5-3-7.79-3.11-2.44-.11-2.93.69-7.79,1.56-4.52.81-6.81,1.19-7.79,0-1.15-1.41-.38-4.72,1.56-6.24,2.2-1.71,4.46,0,6.23-1.55,2-1.74,1.81-6.29,0-9.35-1.55-2.64-3.31-2.52-9.34-6.23-5.25-3.23-7.9-4.9-9.35-7.79-.82-1.62-1.06-4.2-1.56-9.35-.48-5-.72-7.49,0-7.79C989.6,452.39,994.57,461.37,997.3,465.54Z" transform="translate(7.3 0.22)"/></g><g id="Layer_6" data-name="Layer 6"><path class="cls-8" d="M1012.26,919.53c-11.82-4.49-28.82-9-48.29-6.67-26.23,3.11-38.13,16.34-50.31,10.8-11.89-5.4-3.27-21.34-18.21-38.57-8.39-9.67-23.16-18.72-39-19.28-26.54-.95-39.36,22.43-49.65,17.89-11.58-5.1,3-35.42-5-81.92-.84-4.93-8.44-47.74-22.55-48.6-13.43-.83-21.82,37.09-30.35,36.25-7.24-.7-13.33-29.13-11.17-138.61,0,0,4.24-5.45,4.24-74.42a6,6,0,0,1,1.88-4.29,6.49,6.49,0,0,1,4.5-1.78H871.19a6.51,6.51,0,0,0-4.5,1.78,6.05,6.05,0,0,0-1.87,4.29c-1.21,17.27-2.86,43.05-4.26,74.42q-.31,7.27-.62,13.93c0,.06,0,.13,0,.19-1.4,31.94-2.26,53.62-2,69.24v.06A54.67,54.67,0,0,0,859,752.58c9.74,41.6,65.51,51.24,107.6,90.85C981.45,857.44,1000.58,880.8,1012.26,919.53Z" transform="translate(7.3 0.22)"/><path class="cls-9" d="M1315.22,812.58c-1.94,14.79-6.12,36.81-25.15,48.6-9.27,5.74-19.14,7.24-25.15,7.71a413.9,413.9,0,0,0,23.77-78c17.77-89.48,1.48-165.72-14.42-214.17a6.28,6.28,0,0,0-6.15-6.36h46.51c3.76,0,6.84,2.73,6.84,6.07C1323.31,689.28,1320.15,775.17,1315.22,812.58Z" transform="translate(7.3 0.22)"/><path class="cls-10" d="M1290.07,861.18a123.84,123.84,0,0,1-48.18,18.43c-7.83,1.23-22.05,3.32-35.15.55-12.13-2.56-19.66-11.33-34.4-25.53-14.22-13.69-15.74-18.23-21-18.14-12.24.22-11.29,24.62-31.22,33.94-20.12,9.42-41.46-5.94-51.17,3.86-7.16,7.22,2.32,17.68-3.47,28.54-6.44,12.07-27.37,16.45-52.9,17-11.3-3.66-26.71-10.32-39.69-23.14-14-13.83-12.19-22.25-24.12-31.63-20.92-16.42-39.44-1.93-62.54-14.65C856.43,834,852,790.55,848.07,752.58c-.79-7.67-1.07-14-1.18-18.34v-.06c.07-16.43.94-38.45,2.24-69.24,0-.06,0-.13,0-.19q.33-6.66.68-13.93c1.55-31.37,3.37-57.15,4.7-74.42a5.73,5.73,0,0,1,2.07-4.29,7.58,7.58,0,0,1,5-1.78h419.23a6.36,6.36,0,0,1,6.33,6.36,616.26,616.26,0,0,1,16.36,97.07,601.55,601.55,0,0,1-1.51,117.1A611.89,611.89,0,0,1,1290.07,861.18Z" transform="translate(7.3 0.22)"/><path class="cls-7" d="M1303.36,630H751.46A16.2,16.2,0,0,1,735,614.08V597.92A16.2,16.2,0,0,1,751.46,582h551.9a16.2,16.2,0,0,1,16.46,15.92v15.92A16.25,16.25,0,0,1,1303.36,630Z" transform="translate(7.3 0.22)"/><path class="cls-11" d="M1291.06,614H763.84c-15.82,0-28.76-10-28.76-22.34V569c0-12.29,12.94-22.34,28.76-22.34h527.22c15.82,0,28.76,10,28.76,22.34v22.71C1319.82,604,1306.88,614,1291.06,614Z" transform="translate(7.3 0.22)"/></g><path class="cls-2" d="M1242.29,868.59c0,10.25-11.86,18.56-26.48,18.56q-1.74,0-3.42-.15H1125c-9.39,0-17-5.64-17-12.61s7.61-12.61,17-12.61a20.83,20.83,0,0,1,10.64,2.77,19.5,19.5,0,0,1-.29-3.35c0-14.33,15.67-26,35-26,15.09,0,27.94,7.09,32.85,17a35.87,35.87,0,0,1,12.59-2.22C1230.43,850,1242.29,858.35,1242.29,868.59Z" transform="translate(7.3 0.22)"/><g id="Layer_14" data-name="Layer 14"><rect class="cls-12" x="775.39" y="456.57" width="9.93" height="109.49" rx="2.94"/><rect class="cls-12" x="834.55" y="444.71" width="9.93" height="109.49" rx="2.94"/><path class="cls-13" d="M869,497.4c-1,.2-2.9.57-5.28.93-5.45.85-21.82,3-61.6-2.62-2.63-.37-4.78-.69-6.16-.9-.19-.88-.54-2.53-.87-4.6-5.24-33.32,11.92-70.13,36.3-90.29,1.61-1.34,2.93-2.33,3.52-2.77.45.45,1.43,1.45,2.64,2.75,2.83,3.07,40.26,44.66,32.34,92.9C869.6,494.65,869.28,496.21,869,497.4Z" transform="translate(7.3 0.22)"/><path class="cls-14" d="M809.7,502.38c-1,.2-2.9.56-5.29.93-5.45.84-21.82,3-61.59-2.62-2.64-.37-4.79-.7-6.16-.91-.2-.87-.55-2.52-.87-4.6-5.25-33.32,11.91-70.12,36.29-90.29,1.61-1.33,2.94-2.33,3.53-2.77.44.45,1.43,1.46,2.63,2.76,2.84,3.07,40.26,44.66,32.35,92.89C810.28,499.62,810,501.19,809.7,502.38Z" transform="translate(7.3 0.22)"/></g><g id="Layer_3" data-name="Layer 3"><g id="Layer_3-2" data-name="Layer 3"><g id="Layer_4" data-name="Layer 4"><path class="cls-6" d="M559.86,667.92c15.92,174,78.89,221.29,78.89,221.29a130.94,130.94,0,0,0,29.11,17c22.58,9.5,41.35,9.71,75.42,9.92,26.58.1,40.19.1,55.8-5.59a113.21,113.21,0,0,0,35.12-20.89c57.49-48.83,48-137.33,65.4-221.5.95-4.32,3.48-16.45-1.9-20.25-6.44-4.54-20.57,5.38-24.26,7.8-13.4,8.86-281.31,20.68-300.72,2.64-1.16-1.05-6.85-6.85-10.44-5.17C559,654.74,559.33,662.54,559.86,667.92Z" transform="translate(7.3 0.22)"/><path class="cls-5" d="M574.83,671.51a83.25,83.25,0,0,1,26.27-2.85c21.3,1.69,19.83,1.16,27.53.84,22.88-1,30.69-8.33,37.55-3.37,7.38,5.38,5.69,19.3,5.06,25-1.16,10.12-1.06,60.22-1.06,160.32,0,13.4.32,30.8,12,45.36,9,11.18,21.09,16.24,29,18.67a112.83,112.83,0,0,1-15.62-1.59,123,123,0,0,1-27.63-7.7,120.92,120.92,0,0,1-19-9.91,112.62,112.62,0,0,1-22.15-19.51c-5.9-6.65-12.55-15.93-22.46-34.92-15.82-30.16-22.89-56.43-27-72.14-4.64-17.2-8-34.81-8.43-37.55-.21-1.27-1.16-6.33-3-16.56-4.85-28.06-5.9-35-1.58-39.66C566.08,673.93,569,673.09,574.83,671.51Z" transform="translate(7.3 0.22)"/><path class="cls-7" d="M895.48,672.24a83.36,83.36,0,0,0-26.26-2.84c-21.31,1.68-19.83,1.16-27.53.84-22.89-1-30.69-8.33-37.55-3.37-7.38,5.37-5.7,19.3-5.06,25,1.16,10.13,1,60.23,1,160.33,0,13.39-.31,30.8-12,45.35-9,11.18-21.1,16.25-29,18.67,5.06-.21,10.13-.42,15.19-.52a94.45,94.45,0,0,0,24.89-5.07,96.46,96.46,0,0,0,24-12.34,121.88,121.88,0,0,0,22.78-19.93c5.06-5.7,12-14.77,22-35.65,13.72-28.9,20.15-53.38,25.21-72.15,1-3.38,4.86-18.14,8.44-37.55.21-1.27,1.16-6.33,2.95-16.56,4.86-28.06,5.91-35,1.59-39.66C904.13,674.67,901.29,673.83,895.48,672.24Z" transform="translate(7.3 0.22)"/><path class="cls-7" d="M899,698.19H571.35a9.86,9.86,0,0,1-9.81-9.81v-9.81a9.86,9.86,0,0,1,9.81-9.81H899a9.86,9.86,0,0,1,9.81,9.81v9.81A9.86,9.86,0,0,1,899,698.19Z" transform="translate(7.3 0.22)"/><path class="cls-11" d="M895.59,683.43H574.73c-9.6,0-17.51-5.47-17.51-12.1V659.09c0-6.63,7.91-12.09,17.51-12.09H895.59c9.6,0,17.51,5.46,17.51,12.09v12.24C913.1,678,905.19,683.43,895.59,683.43Z" transform="translate(7.3 0.22)"/></g></g></g><g id="Layer_5" data-name="Layer 5"><g id="Layer_3-3" data-name="Layer 3"><g id="long_island" data-name="long island"><path class="cls-15" d="M1363.56,742.09V883.43c0,5.69-2.14,10.38-4.79,10.38h-11.25a5.4,5.4,0,0,1-4.21-2.4h0a17.42,17.42,0,0,1-1.73-8V742.09c0-3.49.06-7,.06-10.37h17.13C1361.37,731.72,1363.56,736.41,1363.56,742.09Z" transform="translate(7.3 0.22)"/><path class="cls-16" d="M1370.48,742.09V883.43c0,5.69-2.71,10.38-6,10.38h-5.31c2.43,0,4.39-4.69,4.39-10.38V742.09c0-5.68-2-10.37-4.39-10.37h5.31C1367.77,731.72,1370.48,736.41,1370.48,742.09Z" transform="translate(7.3 0.22)"/><path class="cls-17" d="M1343.54,960.44c0,8-3.4,14.56-7.61,14.56h-7.44c3.69,0,6.75-6.58,6.75-14.56q-.18-114.32-.4-228.72h8.24Q1343.35,846,1343.54,960.44Z" transform="translate(7.3 0.22)"/><path class="cls-6" d="M1335.24,960.44c0,8-3.06,14.56-6.75,14.56h-52.25c-4,0-7.38-6.18-7.61-13.76V745.48c.23-7.68,3.51-13.76,7.61-13.76h58.6Q1335.1,846,1335.24,960.44Z" transform="translate(7.3 0.22)"/><path class="cls-18" d="M1283.62,741.29v98.45c0,5.29-2.48,9.58-5.54,9.58h-4.67c3.06,0,5.54-4.29,5.54-9.58V741.29c0-5.28-2.48-9.57-5.54-9.57h4.67C1281.08,731.72,1283.62,736,1283.62,741.29Z" transform="translate(7.3 0.22)"/><path class="cls-8" d="M1279,741.29v98.45c0,5.29-2.25,9.58-5,9.58h-18.86c-2.71,0-5-4.29-5-9.58V741.29c0-5.28,2.25-9.57,5-9.57H1274C1276.7,731.72,1279,736,1279,741.29Z" transform="translate(7.3 0.22)"/><path class="cls-7" d="M1367.83,742.79H1253.34c-1.79,0-3.17-2.49-3.17-5.49v-4.48c0-3.1,1.44-5.49,3.17-5.49h114.49c1.78,0,3.17,2.49,3.17,5.49v4.48C1371.06,740.3,1369.61,742.79,1367.83,742.79Z" transform="translate(7.3 0.22)"/><path class="cls-11" d="M1364.83,735H1256.4c-3.46,0-6.23-4.89-6.23-10.77V711.67c0-6,2.83-10.77,6.23-10.77h108.37c3.46,0,6.23,4.89,6.23,10.77v12.57C1371.06,730.12,1368.23,735,1364.83,735Z" transform="translate(7.3 0.22)"/></g></g></g><g id="Layer_2" data-name="Layer 2"><g id="Layer_3-4" data-name="Layer 3"><g id="small_Island_copy" data-name="small Island copy"><path class="cls-6" d="M789.18,798.2c5.76,62.82,28.5,79.88,28.5,79.88a45.73,45.73,0,0,0,10.55,6.17c8.16,3.42,14.94,3.49,27.27,3.56,9.59.07,14.52,0,20.14-2a40.46,40.46,0,0,0,12.67-7.53c20.76-17.61,17.33-49.53,23.64-79.95.34-1.58,1.23-6-.69-7.33-2.33-1.64-7.4,1.92-8.77,2.81-4.86,3.22-101.52,7.47-108.51,1-.41-.41-2.47-2.47-3.77-1.85S789,796.28,789.18,798.2Z" transform="translate(7.3 0.22)"/><path class="cls-5" d="M794.53,799.5a28.7,28.7,0,0,1,9.45-1c7.74.61,7.13.41,9.94.34,8.22-.34,11.09-3,13.56-1.23,2.67,1.91,2,7,1.85,9-.41,3.63-.41,21.71-.34,57.89,0,4.86.13,11.09,4.31,16.37a20.64,20.64,0,0,0,10.48,6.71,52.93,52.93,0,0,1-5.61-.55,43.55,43.55,0,0,1-10-2.8,38.22,38.22,0,0,1-14.86-10.62c-2.13-2.4-4.52-5.76-8.09-12.61a124.55,124.55,0,0,1-9.79-26c-1.65-6.23-2.88-12.61-3.08-13.56-.07-.42-.42-2.26-1-6-1.78-10.14-2.13-12.61-.62-14.32C791.38,800.39,792.47,800.12,794.53,799.5Z" transform="translate(7.3 0.22)"/><path class="cls-7" d="M910.3,799.78a28.82,28.82,0,0,0-9.45-1c-7.74.62-7.13.41-9.93.34-8.22-.34-11.1-3-13.57-1.23-2.67,1.92-2.05,7-1.85,9,.41,3.63.41,21.72.34,57.89,0,4.86-.13,11.1-4.31,16.37a20.73,20.73,0,0,1-10.48,6.72l5.48-.21a31.69,31.69,0,0,0,9-1.85,36,36,0,0,0,8.63-4.45,43.26,43.26,0,0,0,8.22-7.19c1.85-2.06,4.39-5.35,7.95-12.88a146.65,146.65,0,0,0,9.11-26c.34-1.23,1.72-6.5,3.09-13.56.06-.41.41-2.26,1-6,1.78-10.14,2.13-12.61.62-14.32C913.45,800.67,912.43,800.39,910.3,799.78Z" transform="translate(7.3 0.22)"/><path class="cls-7" d="M911.54,809.16H793.29a3.58,3.58,0,0,1-3.56-3.56V802a3.58,3.58,0,0,1,3.56-3.56H911.54A3.58,3.58,0,0,1,915.1,802v3.56A3.54,3.54,0,0,1,911.54,809.16Z" transform="translate(7.3 0.22)"/><path class="cls-11" d="M910.3,803.82H794.53a6.28,6.28,0,0,1-6.3-6.3v-6.37a6.28,6.28,0,0,1,6.3-6.31H910.3a6.29,6.29,0,0,1,6.31,6.31v6.37A6.25,6.25,0,0,1,910.3,803.82Z" transform="translate(7.3 0.22)"/></g></g></g><g id="tree_layer_3" data-name="tree layer 3"><rect class="cls-12" x="1207.13" y="421.03" width="9.75" height="142.19" rx="3.32"/><ellipse class="cls-19" cx="1211.08" cy="394.63" rx="48.11" ry="41.46"/><path class="cls-12" d="M1203.78,471.88v1.25c0,1.17-.57,2.12-1.28,2.12h-20.85a1.12,1.12,0,0,1-.48.1h-1.69a1.48,1.48,0,0,1-1.39-1.54v-18a1.47,1.47,0,0,1,1.39-1.53h1.69a1.47,1.47,0,0,1,1.4,1.53v14h19.93C1203.21,469.75,1203.78,470.71,1203.78,471.88Z" transform="translate(7.3 0.22)"/><ellipse class="cls-20" cx="1188.26" cy="451.44" rx="16.98" ry="11.29"/><rect class="cls-12" x="1137.32" y="362.06" width="14.89" height="189.2" rx="4.73"/><path class="cls-12" d="M1142.93,429.22v1.53c0,1.43.59,2.61,1.31,2.61h21.3a1.18,1.18,0,0,0,.49.12h1.72a1.71,1.71,0,0,0,1.43-1.89V409.46a1.71,1.71,0,0,0-1.43-1.89H1166a1.72,1.72,0,0,0-1.43,1.89V426.6h-20.36C1143.52,426.6,1142.93,427.78,1142.93,429.22Z" transform="translate(7.3 0.22)"/><ellipse class="cls-21" cx="1173.54" cy="394.81" rx="17.35" ry="13.87"/><path class="cls-12" d="M1168.1,413.86v.82c0,.77.27,1.39.61,1.39h10a.48.48,0,0,0,.23.07h.81c.37,0,.67-.46.67-1V403.31c0-.55-.3-1-.67-1H1179c-.37,0-.67.46-.67,1v9.16h-9.58C1168.37,412.47,1168.1,413.09,1168.1,413.86Z" transform="translate(7.3 0.22)"/><ellipse class="cls-22" cx="1186.35" cy="402.14" rx="8.16" ry="7.41"/><path class="cls-12" d="M1135.3,453.92v.94c0,.87-.49,1.59-1.09,1.59h-18a1.14,1.14,0,0,1-.41.07h-1.45a1.19,1.19,0,0,1-1.21-1.15V441.86a1.19,1.19,0,0,1,1.21-1.15h1.45a1.18,1.18,0,0,1,1.2,1.15v10.47h17.16C1134.81,452.33,1135.3,453,1135.3,453.92Z" transform="translate(7.3 0.22)"/><ellipse class="cls-23" cx="1120.76" cy="433.91" rx="14.61" ry="8.47"/><rect class="cls-24" x="1272.01" y="395.25" width="11.38" height="162.29" rx="3.83"/><ellipse class="cls-25" cx="1275.9" cy="365.82" rx="49.39" ry="46.62"/><path class="cls-24" d="M1274.58,452.82v1.32c0,1.23.45,2.24,1,2.24h16.28a.83.83,0,0,0,.38.1h1.31c.6,0,1.1-.73,1.1-1.62v-19c0-.89-.5-1.62-1.1-1.62h-1.31c-.6,0-1.09.73-1.09,1.62v14.7h-15.57C1275,450.58,1274.58,451.59,1274.58,452.82Z" transform="translate(7.3 0.22)"/><ellipse class="cls-20" cx="1299.7" cy="423.35" rx="13.26" ry="11.9"/><path class="cls-24" d="M1293.82,439.65v.7c0,.66.21,1.2.46,1.2h7.66a.3.3,0,0,0,.18.06h.62c.28,0,.51-.39.51-.87V430.6c0-.47-.23-.86-.51-.86h-.62c-.28,0-.52.39-.52.86v7.86h-7.32C1294,438.46,1293.82,439,1293.82,439.65Z" transform="translate(7.3 0.22)"/><ellipse class="cls-20" cx="1309.49" cy="429.63" rx="6.23" ry="6.35"/><path class="cls-24" d="M1268.75,474v.8c0,.75-.37,1.37-.84,1.37H1254.2a.87.87,0,0,1-.32.06h-1.11a1,1,0,0,1-.92-1V463.67a1,1,0,0,1,.92-1h1.11a1,1,0,0,1,.92,1v9h13.11C1268.38,472.65,1268.75,473.26,1268.75,474Z" transform="translate(7.3 0.22)"/><ellipse class="cls-20" cx="1261.04" cy="460.95" rx="11.17" ry="7.27"/><path class="cls-26" d="M1237.93,532.2,1240.87,413" transform="translate(7.3 0.22)"/><ellipse class="cls-27" cx="1146.58" cy="313.69" rx="65.28" ry="54.47"/></g><g id="tree_layer_2" data-name="tree layer 2"><rect class="cls-12" x="1318.02" y="639.88" width="4.48" height="63.34" rx="1.5"/><ellipse class="cls-28" cx="1319.83" cy="628.12" rx="22.1" ry="18.47"/><rect class="cls-12" x="1286.95" y="625.61" width="6.84" height="84.29" rx="2.14"/><path class="cls-12" d="M1285.58,655.4v.68c0,.64.27,1.17.6,1.17H1296a.54.54,0,0,0,.22,0h.8a.77.77,0,0,0,.65-.84V646.6a.77.77,0,0,0-.65-.84h-.8a.77.77,0,0,0-.65.84v7.64h-9.36C1285.85,654.24,1285.58,654.76,1285.58,655.4Z" transform="translate(7.3 0.22)"/><ellipse class="cls-29" cx="1303.59" cy="640.2" rx="7.97" ry="6.18"/><path class="cls-12" d="M1297.14,648.56v.36c0,.35.13.63.28.63H1302l.1,0h.37c.17,0,.31-.2.31-.44v-5.27c0-.25-.14-.45-.31-.45h-.37c-.17,0-.31.2-.31.45v4.08h-4.4C1297.27,647.94,1297.14,648.22,1297.14,648.56Z" transform="translate(7.3 0.22)"/><ellipse class="cls-30" cx="1309.48" cy="643.46" rx="3.75" ry="3.3"/><path class="cls-12" d="M1282.08,666.41v.41c0,.39-.23.71-.5.71h-8.25a.58.58,0,0,1-.19,0h-.66a.54.54,0,0,1-.56-.52v-6a.54.54,0,0,1,.56-.51h.66a.54.54,0,0,1,.56.51v4.67h7.88C1281.85,665.7,1282.08,666,1282.08,666.41Z" transform="translate(7.3 0.22)"/><ellipse class="cls-31" cx="1279.35" cy="657.62" rx="6.71" ry="3.77"/><ellipse class="cls-32" cx="1289.21" cy="612.43" rx="29.68" ry="24.21"/><rect class="cls-12" x="1336.06" y="670.36" width="3.47" height="46.72" rx="1.13"/><path class="cls-33" d="M1343.31,689.78c-.36.08-1,.24-1.85.4-1.91.36-7.63,1.28-21.53-1.12l-2.15-.39c-.07-.37-.19-1.08-.3-2-1.84-14.22,4.16-29.92,12.68-38.53.56-.57,1-1,1.23-1.18.16.19.5.62.92,1.18,1,1.3,14.07,19.05,11.31,39.63C1343.51,688.6,1343.4,689.27,1343.31,689.78Z" transform="translate(7.3 0.22)"/></g><path class="cls-2" d="M835,767.73c0,8.08-12.85,14.78-29.68,16-1.9.14-3.83.22-5.81.22H561.74c-1.76.14-3.58.22-5.43.22-17.34,0-31.4-6.48-31.4-14.47s14.06-14.47,31.4-14.47a64.12,64.12,0,0,1,12.45,1.18,12,12,0,0,1-.67-3.92c0-14.54,27.18-26.32,60.72-26.32s60.72,11.78,60.72,26.32a11.12,11.12,0,0,1-.06,1.16c5.9-6.7,20.15-11.41,36.8-11.41,21.92,0,39.7,8.18,39.7,18.29a8.82,8.82,0,0,1-.14,1.54q-.06.32-.15.63a9.47,9.47,0,0,0-1.49,3.24,10.17,10.17,0,0,0,1.49-3.24c.15-.22.31-.42.48-.63,5-6.23,18-10.66,33.33-10.66C819.09,751.46,835,758.74,835,767.73Z" transform="translate(7.3 0.22)"/><path class="cls-2" d="M1290.2,381.59c0,10.25-11.86,18.56-26.48,18.56q-1.74,0-3.42-.15H1173c-9.4,0-17-5.64-17-12.61s7.61-12.61,17-12.61a20.88,20.88,0,0,1,10.64,2.77,18.55,18.55,0,0,1-.3-3.35c0-14.33,15.67-25.95,35-25.95,15.09,0,28,7.09,32.85,17a35.92,35.92,0,0,1,12.59-2.22C1278.34,363,1290.2,371.35,1290.2,381.59Z" transform="translate(7.3 0.22)"/><path class="cls-2" d="M1505,764.12a21.93,21.93,0,0,1-18.39,21.59,22.42,22.42,0,0,1-3.6.29H1335.7a19.46,19.46,0,1,1-3.37-38.63,19.28,19.28,0,0,1,7.72,1.6,32.87,32.87,0,0,1-.42-5.27c0-19.56,16.85-35.41,37.63-35.41s37.63,15.85,37.63,35.41c0,.52,0,1,0,1.55a24.6,24.6,0,0,1,47.4,9.25q0,1.05-.09,2.07c0,.29-.05.57-.09.85a21.75,21.75,0,0,0-.92,4.37,23.56,23.56,0,0,0,.92-4.37c.1-.29.19-.57.3-.85a22,22,0,0,1,42.64,7.55Z" transform="translate(7.3 0.22)"/><path class="cls-2" d="M204,52.11c0,16.09-18.62,29.13-41.57,29.13-1.82,0-3.61-.08-5.36-.24H20C5.21,81-6.74,72.14-6.74,61.21s12-19.8,26.69-19.8a32.72,32.72,0,0,1,16.7,4.36,30.65,30.65,0,0,1-.46-5.27C36.19,18,60.78-.22,91.11-.22c23.68,0,43.86,11.12,51.56,26.7A55.93,55.93,0,0,1,162.43,23C185.38,23,204,36,204,52.11Z" transform="translate(7.3 0.22)"/></g><g id="bubble_machine" data-name="bubble machine"><path class="cls-34" d="M1020.66,552.52H908.34L897,426.83c0-4.33,5.08-7.83,11.34-7.83h112.32c6.26,0,11.34,3.5,11.34,7.83Z" transform="translate(7.3 0.22)"/><path class="cls-35" d="M1016.76,552.58H915.29q-5.13-56.76-10.24-113.51c0-3.9,4.58-7.07,10.24-7.07h101.47c5.65,0,10.24,3.17,10.24,7.07Q1021.89,495.83,1016.76,552.58Z" transform="translate(7.3 0.22)"/><path class="cls-36" d="M994,553.34H935q-3-42.06-6-84.1c0-2.9,2.67-5.24,6-5.24H994c3.29,0,6,2.34,6,5.24Q997,511.29,994,553.34Z" transform="translate(7.3 0.22)"/><path class="cls-37" d="M993.78,553.46h-58l-5.85-84c0-2.89,2.62-5.23,5.85-5.23h58c3.24,0,5.86,2.34,5.86,5.23Q996.72,511.44,993.78,553.46Z" transform="translate(7.3 0.22)"/><g id="Layer_23" data-name="Layer 23"><path class="cls-38" d="M1078,511.13v48.39c0,1.85-11.41,3.35-25.5,3.35s-25.5-1.5-25.5-3.35V511.13c1.21,1.7,12.16,3,25.5,3S1076.79,512.83,1078,511.13Z" transform="translate(7.3 0.22)"/><path class="cls-39" d="M1077.77,510.29a.56.56,0,0,1-.11.31c-1.19,1.67-12,3-25.13,3s-23.92-1.31-25.12-3a.56.56,0,0,1-.11-.31c0-1.82,11.3-3.29,25.23-3.29S1077.77,508.47,1077.77,510.29Z" transform="translate(7.3 0.22)"/><g id="Layer_20" data-name="Layer 20"><g class="cls-40"><path class="cls-41" d="M1088.29,428.73a10.15,10.15,0,0,1-9.16-5.75,10.45,10.45,0,0,1,4.6-13.9,10,10,0,0,1,4.54-1.08,10.16,10.16,0,0,1,9.16,5.74,10.44,10.44,0,0,1-4.6,13.9A10,10,0,0,1,1088.29,428.73Z" transform="translate(7.3 0.22)"/><path class="cls-42" d="M1088.27,408.5h0A9.66,9.66,0,0,1,1097,414a9.94,9.94,0,0,1-4.38,13.23,9.41,9.41,0,0,1-4.31,1,9.67,9.67,0,0,1-8.71-5.47,9.94,9.94,0,0,1,4.38-13.23,9.53,9.53,0,0,1,4.31-1m0-1a10.45,10.45,0,0,0-4.76,1.14,10.92,10.92,0,0,0-4.82,14.56,10.63,10.63,0,0,0,14.37,4.89,11,11,0,0,0,4.82-14.57,10.72,10.72,0,0,0-9.61-6Z" transform="translate(7.3 0.22)"/></g><g class="cls-40"><path class="cls-43" d="M1018.13,390a19.46,19.46,0,0,1-17.57-11,20.12,20.12,0,0,1,9-26.72,19.57,19.57,0,0,1,26.43,8.84,20.1,20.1,0,0,1-9,26.72A19.54,19.54,0,0,1,1018.13,390Z" transform="translate(7.3 0.22)"/><path class="cls-44" d="M1018.42,349.73v1a18.94,18.94,0,0,1,17.11,10.68,19.61,19.61,0,0,1-8.76,26.06,19.09,19.09,0,0,1-25.76-8.62,19.61,19.61,0,0,1,8.76-26.05,19.1,19.1,0,0,1,8.65-2.07v-1m0,0a20.13,20.13,0,0,0-9.1,2.18,20.59,20.59,0,0,0-9.21,27.38,20.08,20.08,0,0,0,27.11,9.07,20.59,20.59,0,0,0,9.21-27.39,20,20,0,0,0-18-11.24Z" transform="translate(7.3 0.22)"/></g><g class="cls-40"><path class="cls-45" d="M993.26,428.47a9.4,9.4,0,1,1,.06,0Z" transform="translate(7.3 0.22)"/><path class="cls-46" d="M993.33,409.42h0a9.29,9.29,0,0,1-.06,18.55h-.06a9.29,9.29,0,0,1,.07-18.55m0-1a10.28,10.28,0,0,0-.07,20.55h.06a10.29,10.29,0,0,0,.07-20.55Z" transform="translate(7.3 0.22)"/></g><path class="cls-47" d="M1016.8,447.24a5.41,5.41,0,0,1-5.19-3.93,5.56,5.56,0,0,1,3.81-6.8,5.41,5.41,0,0,1,6.73,3.7,5.55,5.55,0,0,1-3.81,6.8A5.37,5.37,0,0,1,1016.8,447.24Z" transform="translate(7.3 0.22)"/><path class="cls-48" d="M1017,436.93h0a4.75,4.75,0,0,1,4.56,3.45,4.92,4.92,0,0,1-3.37,6,4.78,4.78,0,0,1-5.93-3.26,4.91,4.91,0,0,1,3.37-6,4.59,4.59,0,0,1,1.37-.2m0-1.29a6,6,0,0,0-1.73.25,6.19,6.19,0,0,0-4.25,7.59,6,6,0,0,0,5.81,4.4,6.2,6.2,0,0,0,6-7.84,6,6,0,0,0-5.8-4.4Z" transform="translate(7.3 0.22)"/><g class="cls-40"><path class="cls-43" d="M1039.17,467.7a12.08,12.08,0,0,1-10.91-6.81,12.5,12.5,0,0,1,5.58-16.6,12.21,12.21,0,0,1,5.51-1.31,12.08,12.08,0,0,1,10.91,6.81,12.49,12.49,0,0,1-5.59,16.6A12.13,12.13,0,0,1,1039.17,467.7Z" transform="translate(7.3 0.22)"/><path class="cls-49" d="M1039.35,442.48v1a11.59,11.59,0,0,1,10.46,6.53,12,12,0,0,1-5.36,15.93,11.66,11.66,0,0,1-15.74-5.27,12,12,0,0,1,5.36-15.93,11.6,11.6,0,0,1,5.28-1.26v-1m0,0a12.67,12.67,0,0,0-5.73,1.37,13,13,0,0,0-5.81,17.26,12.65,12.65,0,0,0,17.09,5.72,13,13,0,0,0,5.81-17.26,12.63,12.63,0,0,0-11.36-7.09Z" transform="translate(7.3 0.22)"/></g><g class="cls-40"><path class="cls-50" d="M1050.63,507.49a14.73,14.73,0,0,1-11.78-5.85,15.25,15.25,0,0,1,2.65-21.18,14.76,14.76,0,0,1,20.89,2.69,15.25,15.25,0,0,1-2.65,21.18A14.63,14.63,0,0,1,1050.63,507.49Z" transform="translate(7.3 0.22)"/><path class="cls-51" d="M1050.61,477.8h0a14.24,14.24,0,0,1,11.38,5.65,14.75,14.75,0,0,1-2.56,20.49,14.26,14.26,0,0,1-20.18-2.6,14.75,14.75,0,0,1,2.56-20.49,14.13,14.13,0,0,1,8.8-3.05m0-1a15.18,15.18,0,0,0-9.41,3.26,15.75,15.75,0,0,0-2.75,21.89,15.26,15.26,0,0,0,21.6,2.77,15.75,15.75,0,0,0,2.74-21.88,15.29,15.29,0,0,0-12.18-6Z" transform="translate(7.3 0.22)"/></g><ellipse class="cls-52" cx="1054.55" cy="425.38" rx="22.45" ry="22.75"/><g class="cls-40"><path class="cls-53" d="M1014.73,419a11.15,11.15,0,0,1-10.05-6.31,11.45,11.45,0,0,1,5-15.25,11.12,11.12,0,0,1,15,5.11,11.45,11.45,0,0,1-5,15.25A10.88,10.88,0,0,1,1014.73,419Z" transform="translate(7.3 0.22)"/><path class="cls-54" d="M1014.71,396.77h0a10.67,10.67,0,0,1,9.6,6,11,11,0,0,1-4.82,14.59,10.62,10.62,0,0,1-14.36-4.89A11,11,0,0,1,1010,397.9a10.55,10.55,0,0,1,4.76-1.13m0-1a11.56,11.56,0,0,0-5.21,1.24,12,12,0,0,0-5.27,15.92,11.71,11.71,0,0,0,10.5,6.59,11.51,11.51,0,0,0,5.21-1.25,11.94,11.94,0,0,0,5.26-15.92,11.68,11.68,0,0,0-10.49-6.58Z" transform="translate(7.3 0.22)"/></g><g class="cls-40"><path class="cls-55" d="M949.5,333.1A11.62,11.62,0,0,1,939,326.53a11.93,11.93,0,0,1,5.26-15.88,11.34,11.34,0,0,1,5.19-1.24A11.61,11.61,0,0,1,960,316a11.94,11.94,0,0,1-5.26,15.89A11.46,11.46,0,0,1,949.5,333.1Z" transform="translate(7.3 0.22)"/><path class="cls-56" d="M949.48,308.91v1a11.12,11.12,0,0,1,10,6.28,11.44,11.44,0,0,1-5,15.22,11,11,0,0,1-5,1.19,11.11,11.11,0,0,1-10-6.29,11.44,11.44,0,0,1,5-15.22,11.08,11.08,0,0,1,5-1.18v-1m0,0a12,12,0,0,0-5.42,1.29,12.43,12.43,0,0,0-5.48,16.55,12.1,12.1,0,0,0,16.34,5.56,12.43,12.43,0,0,0,5.47-16.56,12.14,12.14,0,0,0-10.91-6.84Z" transform="translate(7.3 0.22)"/></g><g class="cls-40"><path class="cls-57" d="M945.93,384.54a18.23,18.23,0,0,1-16.43-10.31,18.73,18.73,0,0,1,8.25-24.93,18,18,0,0,1,8.16-1.95,18.23,18.23,0,0,1,16.43,10.31,18.74,18.74,0,0,1-8.25,24.93A17.9,17.9,0,0,1,945.93,384.54Z" transform="translate(7.3 0.22)"/><path class="cls-58" d="M945.91,346.89v.91h0a17.79,17.79,0,0,1,16,10.06,18.28,18.28,0,0,1-8,24.33,17.5,17.5,0,0,1-8,1.9,17.77,17.77,0,0,1-16-10.06A18.26,18.26,0,0,1,938,349.71a17.38,17.38,0,0,1,7.95-1.91v-.91m0,0a18.58,18.58,0,0,0-8.36,2,19.17,19.17,0,0,0-8.46,25.54A18.77,18.77,0,0,0,945.93,385a18.45,18.45,0,0,0,8.36-2,19.17,19.17,0,0,0,8.46-25.54,18.79,18.79,0,0,0-16.84-10.57Z" transform="translate(7.3 0.22)"/></g><g class="cls-40"><path class="cls-43" d="M1074.73,482a12.08,12.08,0,0,1-10.91-6.81,12.49,12.49,0,0,1,5.58-16.6,12.22,12.22,0,0,1,5.51-1.32,12.08,12.08,0,0,1,10.91,6.81,12.49,12.49,0,0,1-5.58,16.6A12.09,12.09,0,0,1,1074.73,482Z" transform="translate(7.3 0.22)"/><path class="cls-59" d="M1074.91,457.73h0a11.58,11.58,0,0,1,10.46,6.53A12,12,0,0,1,1080,480.2a11.66,11.66,0,0,1-15.74-5.27,12,12,0,0,1,5.36-15.93,11.61,11.61,0,0,1,5.28-1.27m0-1a12.69,12.69,0,0,0-5.73,1.38,13,13,0,0,0-5.81,17.26,12.65,12.65,0,0,0,17.09,5.72,13,13,0,0,0,5.81-17.27,12.65,12.65,0,0,0-11.36-7.09Z" transform="translate(7.3 0.22)"/></g><g class="cls-40"><path class="cls-57" d="M1063.86,399.19a20,20,0,0,1-18.06-11.33,20.59,20.59,0,0,1,9.07-27.4,19.7,19.7,0,0,1,9-2.14,20,20,0,0,1,18.06,11.33,20.58,20.58,0,0,1-9.06,27.39A19.65,19.65,0,0,1,1063.86,399.19Z" transform="translate(7.3 0.22)"/><path class="cls-60" d="M1063.83,357.82v1h0a19.52,19.52,0,0,1,17.6,11.05,20.09,20.09,0,0,1-8.84,26.73,19.32,19.32,0,0,1-8.73,2.09,19.54,19.54,0,0,1-17.61-11.05,20.08,20.08,0,0,1,8.84-26.73,19.19,19.19,0,0,1,8.73-2.09v-1m0,0a20.31,20.31,0,0,0-9.18,2.19,21.07,21.07,0,0,0-9.29,28.07,20.64,20.64,0,0,0,18.51,11.61,20.32,20.32,0,0,0,9.18-2.2,21.06,21.06,0,0,0,9.29-28.06,20.62,20.62,0,0,0-18.51-11.61Z" transform="translate(7.3 0.22)"/></g><path class="cls-2" d="M1074.45,369.72c-6.13-6.72-16.2-5.4-16.12-6.49s9.86-3.34,16.45,1.76a14.82,14.82,0,0,1,4.18,5.25c3,6,1.63,12.82.71,12.9S1079.64,375.42,1074.45,369.72Z" transform="translate(7.3 0.22)"/><path class="cls-2" d="M1007.47,357.87a19.25,19.25,0,0,0-4.3,5.15,20.89,20.89,0,0,0-2.44,6.47c-.16,0,.14-5.48,3.41-9.89a11.52,11.52,0,0,1,4.74-3.8c.71-.29,1.77-.62,1.86-.44S1009.18,356.45,1007.47,357.87Z" transform="translate(7.3 0.22)"/><path class="cls-2" d="M990.91,413.43c-4.08,2.11-4.83,7.91-5.34,7.66s-.25-6.06,3.11-8.74a6.47,6.47,0,0,1,3.1-1.31c3.3-.52,6.37,1.52,6.28,2S994.36,411.64,990.91,413.43Z" transform="translate(7.3 0.22)"/><path class="cls-2" d="M1032.86,414.4c-2.09,2.45-3.93,4.67-4.6,7.72a9.31,9.31,0,0,1-.27,1.21,13,13,0,0,1,.79-6.68,18,18,0,0,1,7.55-8.66c2.58-1.38,5.36-1.83,5.5-1.44s-1.79,1.19-4.47,3.37A33.81,33.81,0,0,0,1032.86,414.4Z" transform="translate(7.3 0.22)"/><path class="cls-2" d="M1034.15,366c-.48-2.38-1.23-3.59-1.05-3.72s2.33,2,3,5.27a11,11,0,0,1-1.77,8.58c-.91,1.15-2.14,2-2.35,1.77s1.15-1.64,2-4A15.12,15.12,0,0,0,1034.15,366Z" transform="translate(7.3 0.22)"/><path class="cls-2" d="M1083.16,423c3.14,3.36,8.93,2.52,8.82,3.09s-5.78,1.86-9.25-.66a6.36,6.36,0,0,1-2.1-2.63c-1.38-3-.25-6.54.28-6.6S1080.51,420.2,1083.16,423Z" transform="translate(7.3 0.22)"/><path class="cls-2" d="M944,315c-3.67,3.23-3.65,8.08-4,8s-.52-5.19,2.61-8.45a8.92,8.92,0,0,1,2.55-1.84c2.27-1.08,4.76-1.06,4.84-.71S946.76,312.57,944,315Z" transform="translate(7.3 0.22)"/><path class="cls-53" d="M1020.82,414.37a13.62,13.62,0,0,0,1.23-2.63,15.54,15.54,0,0,0,.23-8.1,16.3,16.3,0,0,0-.44-1.77,10.64,10.64,0,0,1-.27,11.68A7.71,7.71,0,0,1,1020.82,414.37Z" transform="translate(7.3 0.22)"/><path class="cls-2" d="M1020.78,400h0c-.17.13.58,1.34,1,3.73a14.94,14.94,0,0,1-.21,7.84c-.82,2.42-2.19,3.8-2,4.06a.15.15,0,0,0,.1,0,5,5,0,0,0,2.24-1.81,11,11,0,0,0,1.77-8.58c-.62-3.15-2.56-5.28-3-5.28Z" transform="translate(7.3 0.22)"/><path class="cls-2" d="M939.6,352.15a22.88,22.88,0,0,0-6,5.17,25.23,25.23,0,0,0-4.13,7.09c-.17-.08,1.24-6.38,5.93-10.9a13.63,13.63,0,0,1,6.28-3.5c.89-.2,2.19-.38,2.26-.16S941.87,350.83,939.6,352.15Z" transform="translate(7.3 0.22)"/><path class="cls-2" d="M956,374.79c5.2-6.45,2.61-15.33,3.61-15.41s4.37,8.41.69,15.05a13.41,13.41,0,0,1-4.14,4.48c-5,3.53-11.3,3.25-11.5,2.43S951.57,380.25,956,374.79Z" transform="translate(7.3 0.22)"/><path class="cls-2" d="M1079.74,464.14c-1.28-3.24-2.91-4.95-2.59-5.1s4.76,3,6.53,7.46c1.49,3.78,1.11,8.31-2,11.09-1.55,1.38-3.76,2.3-4.18,2s1.91-2,3.08-5.06C1082.18,470.31,1080.48,466,1079.74,464.14Z" transform="translate(7.3 0.22)"/><path class="cls-2" d="M1058.39,487c-1.28-3.24-2.91-4.95-2.59-5.1s4.76,3,6.52,7.45c1.5,3.78,1.12,8.32-2,11.09-1.55,1.38-3.75,2.31-4.18,2s1.92-2,3.09-5.06C1060.83,493.18,1059.13,488.88,1058.39,487Z" transform="translate(7.3 0.22)"/><path class="cls-2" d="M1047,459.08c1.75-2.1,2.28-3.76,2.51-3.64s-.14,4-2.54,6.89c-2,2.46-5.38,4.16-8.62,3.56-1.61-.31-3.18-1.18-3.12-1.56s2.2.25,4.83-.38C1043.71,463.09,1046,460.29,1047,459.08Z" transform="translate(7.3 0.22)"/><g class="cls-40"><path class="cls-2" d="M1020.09,441.1c-.58-2.43-3.66-3.65-3.45-3.88s3.37.74,4.36,2.87a3.32,3.32,0,0,1,.28,1.81c-.19,1.79-1.76,3.1-2,3S1020.58,443.16,1020.09,441.1Z" transform="translate(7.3 0.22)"/></g></g></g><g id="Layer_20_copy" data-name="Layer 20 copy"><g class="cls-40"><path class="cls-41" d="M979.29,365.73a10.15,10.15,0,0,1-9.16-5.75,10.45,10.45,0,0,1,4.6-13.9,10,10,0,0,1,4.54-1.08,10.16,10.16,0,0,1,9.16,5.74,10.44,10.44,0,0,1-4.6,13.9A10,10,0,0,1,979.29,365.73Z" transform="translate(7.3 0.22)"/><path class="cls-42" d="M979.27,345.5h0A9.66,9.66,0,0,1,988,351a9.94,9.94,0,0,1-4.38,13.23,9.41,9.41,0,0,1-4.31,1,9.67,9.67,0,0,1-8.71-5.47A9.94,9.94,0,0,1,975,346.53a9.53,9.53,0,0,1,4.31-1m0-1a10.45,10.45,0,0,0-4.76,1.14,10.92,10.92,0,0,0-4.82,14.56,10.63,10.63,0,0,0,14.37,4.89,11,11,0,0,0,4.82-14.57,10.72,10.72,0,0,0-9.61-6Z" transform="translate(7.3 0.22)"/></g><g class="cls-40"><path class="cls-43" d="M1105.13,364.1a34.93,34.93,0,0,1-31.55-19.68,36.12,36.12,0,0,1,16.14-48,35.14,35.14,0,0,1,47.47,15.87,36.12,36.12,0,0,1-16.14,48A35.05,35.05,0,0,1,1105.13,364.1Z" transform="translate(7.3 0.22)"/><path class="cls-44" d="M1105.64,291.73v1.8a34,34,0,0,1,30.74,19.18,35.2,35.2,0,0,1-15.74,46.78A34.24,34.24,0,0,1,1074.39,344a35.21,35.21,0,0,1,15.73-46.78,34.24,34.24,0,0,1,15.52-3.71v-1.8m0,0a36.14,36.14,0,0,0-16.32,3.91,37,37,0,0,0-16.54,49.17,36,36,0,0,0,48.67,16.28A37,37,0,0,0,1138,311.92a36,36,0,0,0-32.35-20.19Z" transform="translate(7.3 0.22)"/></g><g class="cls-40"><path class="cls-47" d="M1077.39,359.22a6.72,6.72,0,0,1-3.29-.87,7,7,0,0,1-2.64-9.39,6.78,6.78,0,0,1,5.94-3.54,6.68,6.68,0,0,1,3.29.86,7,7,0,0,1,2.65,9.39A6.8,6.8,0,0,1,1077.39,359.22Z" transform="translate(7.3 0.22)"/><path class="cls-48" d="M1077.4,346.22h0a5.92,5.92,0,0,1,2.9.76,6.16,6.16,0,0,1,2.33,8.3,6,6,0,0,1-5.24,3.13,5.91,5.91,0,0,1-2.89-.76,6.16,6.16,0,0,1-2.34-8.3,6,6,0,0,1,5.24-3.13m0-1.61a7.58,7.58,0,0,0-6.65,4,7.75,7.75,0,0,0,3,10.47,7.45,7.45,0,0,0,3.68,1,7.57,7.57,0,0,0,6.65-4,7.74,7.74,0,0,0-3-10.47,7.42,7.42,0,0,0-3.68-1Z" transform="translate(7.3 0.22)"/></g><g class="cls-40"><path class="cls-50" d="M949.62,295.5a10.89,10.89,0,0,1-8.71-4.32,11.29,11.29,0,0,1,2-15.67,10.91,10.91,0,0,1,15.45,2,11.3,11.3,0,0,1-2,15.68A10.81,10.81,0,0,1,949.62,295.5Z" transform="translate(7.3 0.22)"/><path class="cls-51" d="M949.61,273.54h0a10.52,10.52,0,0,1,8.42,4.18,10.9,10.9,0,0,1-1.9,15.15A10.54,10.54,0,0,1,941.2,291a10.9,10.9,0,0,1,1.9-15.15,10.43,10.43,0,0,1,6.51-2.26m0-.74a11.3,11.3,0,0,0-7,2.41,11.65,11.65,0,0,0-2,16.19,11.29,11.29,0,0,0,16,2.06,11.64,11.64,0,0,0,2-16.19,11.28,11.28,0,0,0-9-4.47Z" transform="translate(7.3 0.22)"/></g><ellipse class="cls-61" cx="990.2" cy="325.91" rx="14.09" ry="14.29"/><g class="cls-40"><path class="cls-55" d="M1062.17,355.35a17,17,0,0,1-15.33-9.62,17.48,17.48,0,0,1,7.69-23.27,16.76,16.76,0,0,1,7.61-1.82,17,17,0,0,1,15.33,9.62,17.48,17.48,0,0,1-7.7,23.27A16.69,16.69,0,0,1,1062.17,355.35Z" transform="translate(7.3 0.22)"/><path class="cls-56" d="M1062.14,319.91v1.46h0a16.27,16.27,0,0,1,14.67,9.21,16.76,16.76,0,0,1-7.37,22.3,16.08,16.08,0,0,1-7.27,1.74,16.28,16.28,0,0,1-14.68-9.22,16.75,16.75,0,0,1,7.37-22.29,16.09,16.09,0,0,1,7.28-1.74v-1.46m0,0a17.71,17.71,0,0,0-7.94,1.89,18.2,18.2,0,0,0-8,24.25,17.82,17.82,0,0,0,16,10,17.52,17.52,0,0,0,7.93-1.9,18.19,18.19,0,0,0,8-24.24,17.79,17.79,0,0,0-16-10Z" transform="translate(7.3 0.22)"/></g><g class="cls-40"><path class="cls-57" d="M991.58,305.85a24.67,24.67,0,0,1-22.24-14,25.35,25.35,0,0,1,11.17-33.74,24.28,24.28,0,0,1,11-2.64,24.68,24.68,0,0,1,22.24,13.95,25.36,25.36,0,0,1-11.17,33.75A24.28,24.28,0,0,1,991.58,305.85Z" transform="translate(7.3 0.22)"/><path class="cls-62" d="M991.54,254.89v1.24h0a24.05,24.05,0,0,1,21.69,13.61,24.74,24.74,0,0,1-10.89,32.92,24,24,0,0,1-32.44-11,24.73,24.73,0,0,1,10.88-32.92,23.68,23.68,0,0,1,10.76-2.57v-1.24m0,0a25,25,0,0,0-11.31,2.71,25.93,25.93,0,0,0-11.44,34.56,25.4,25.4,0,0,0,22.79,14.3,25.1,25.1,0,0,0,11.31-2.7,25.94,25.94,0,0,0,11.44-34.57,25.41,25.41,0,0,0-22.79-14.3Z" transform="translate(7.3 0.22)"/></g><g class="cls-40"><path class="cls-43" d="M1052.73,312a12.08,12.08,0,0,1-10.91-6.81,12.49,12.49,0,0,1,5.58-16.6,12.22,12.22,0,0,1,5.51-1.32,12.08,12.08,0,0,1,10.91,6.81,12.49,12.49,0,0,1-5.58,16.6A12.09,12.09,0,0,1,1052.73,312Z" transform="translate(7.3 0.22)"/><path class="cls-59" d="M1052.91,287.73h0a11.58,11.58,0,0,1,10.46,6.53A12,12,0,0,1,1058,310.2a11.66,11.66,0,0,1-15.74-5.27,12,12,0,0,1,5.36-15.93,11.61,11.61,0,0,1,5.28-1.27m0-1a12.69,12.69,0,0,0-5.73,1.38,13,13,0,0,0-5.81,17.26,12.65,12.65,0,0,0,17.09,5.72,13,13,0,0,0,5.81-17.27,12.65,12.65,0,0,0-11.36-7.09Z" transform="translate(7.3 0.22)"/></g><g class="cls-40"><path class="cls-57" d="M1030.86,337.19a20,20,0,0,1-18.06-11.33,20.59,20.59,0,0,1,9.07-27.4,19.7,19.7,0,0,1,8.95-2.14,20,20,0,0,1,18.06,11.33,20.58,20.58,0,0,1-9.06,27.39A19.65,19.65,0,0,1,1030.86,337.19Z" transform="translate(7.3 0.22)"/><path class="cls-60" d="M1030.83,295.82v1h0a19.52,19.52,0,0,1,17.6,11.05,20.09,20.09,0,0,1-8.84,26.73,19.32,19.32,0,0,1-8.73,2.09,19.54,19.54,0,0,1-17.61-11.05,20.08,20.08,0,0,1,8.84-26.73,19.19,19.19,0,0,1,8.73-2.09v-1m0,0a20.31,20.31,0,0,0-9.18,2.19,21.07,21.07,0,0,0-9.29,28.07,20.64,20.64,0,0,0,18.51,11.61,20.32,20.32,0,0,0,9.18-2.2,21.06,21.06,0,0,0,9.29-28.06,20.62,20.62,0,0,0-18.51-11.61Z" transform="translate(7.3 0.22)"/></g><path class="cls-2" d="M1041.45,307.72c-6.13-6.72-16.2-5.4-16.12-6.49s9.86-3.34,16.45,1.76a14.82,14.82,0,0,1,4.18,5.25c3,6,1.63,12.82.71,12.9S1046.64,313.42,1041.45,307.72Z" transform="translate(7.3 0.22)"/><path class="cls-2" d="M1086,306.35a34.58,34.58,0,0,0-7.72,9.24c-3.81,6.37-4.18,11.68-4.39,11.63s.25-9.84,6.13-17.78a20.58,20.58,0,0,1,8.51-6.8c1.27-.52,3.18-1.13,3.34-.81S1089.05,303.8,1086,306.35Z" transform="translate(7.3 0.22)"/><path class="cls-2" d="M973.86,318.93a11.25,11.25,0,0,0-2.89,4.85,4.24,4.24,0,0,1-.17.76,8.25,8.25,0,0,1,.5-4.2,11.35,11.35,0,0,1,4.74-5.43c1.62-.87,3.36-1.15,3.46-.9s-1.13.74-2.81,2.11A21.68,21.68,0,0,0,973.86,318.93Z" transform="translate(7.3 0.22)"/><path class="cls-2" d="M1133.89,321c-.85-4.29-2.21-6.45-1.89-6.69s4.2,3.56,5.37,9.46c1,5,.11,11.26-3.17,15.42-1.64,2.06-3.85,3.59-4.22,3.18s2.06-2.95,3.52-7.28C1135.51,329.11,1134.38,323.41,1133.89,321Z" transform="translate(7.3 0.22)"/><path class="cls-2" d="M974.16,360c3.14,3.36,8.93,2.52,8.82,3.09s-5.78,1.86-9.25-.66a6.36,6.36,0,0,1-2.1-2.63c-1.38-3-.25-6.54.28-6.6S971.51,357.2,974.16,360Z" transform="translate(7.3 0.22)"/><path class="cls-2" d="M1054.11,328.83c-5.37,4.73-5.34,11.84-5.86,11.72s-.76-7.6,3.83-12.38a13.16,13.16,0,0,1,3.73-2.69c3.32-1.59,7-1.55,7.09-1S1058.16,325.27,1054.11,328.83Z" transform="translate(7.3 0.22)"/><path class="cls-2" d="M983,262a31.35,31.35,0,0,0-8.17,7,33.62,33.62,0,0,0-5.57,9.6c-.24-.1,1.67-8.63,8-14.75a18.36,18.36,0,0,1,8.5-4.74c1.19-.27,3-.52,3.05-.21S986.08,260.21,983,262Z" transform="translate(7.3 0.22)"/><path class="cls-2" d="M1005.16,292.64c7-8.73,3.53-20.74,4.88-20.84s5.92,11.37.94,20.35a18.26,18.26,0,0,1-5.6,6.08c-6.78,4.77-15.29,4.38-15.56,3.28S999.21,300,1005.16,292.64Z" transform="translate(7.3 0.22)"/><path class="cls-2" d="M1057.74,294.14c-1.28-3.24-2.91-4.95-2.59-5.1s4.76,3,6.53,7.46c1.49,3.78,1.11,8.31-2,11.09-1.55,1.38-3.76,2.3-4.18,2s1.91-2,3.08-5.06C1060.18,300.31,1058.48,296,1057.74,294.14Z" transform="translate(7.3 0.22)"/><path class="cls-2" d="M955.36,280.36c-.94-2.4-2.15-3.66-1.91-3.77s3.52,2.21,4.82,5.51c1.11,2.8.83,6.15-1.48,8.2-1.14,1-2.78,1.71-3.09,1.47s1.42-1.48,2.28-3.75C957.17,284.92,955.91,281.73,955.36,280.36Z" transform="translate(7.3 0.22)"/><path class="cls-2" d="M1081.41,351.49c-.72-3-4.58-4.56-4.31-4.85s4.22.92,5.45,3.59a4.16,4.16,0,0,1,.35,2.26c-.24,2.24-2.2,3.88-2.54,3.73S1082,354.06,1081.41,351.49Z" transform="translate(7.3 0.22)"/><g class="cls-40"><path class="cls-41" d="M1018.15,288.08a12.18,12.18,0,0,1-11-6.89,12.52,12.52,0,0,1,5.51-16.67,12,12,0,0,1,5.45-1.31,12.17,12.17,0,0,1,11,6.9,12.52,12.52,0,0,1-5.51,16.67A12.08,12.08,0,0,1,1018.15,288.08Z" transform="translate(7.3 0.22)"/><path class="cls-42" d="M1018.13,262.61v1.2a11.58,11.58,0,0,1,10.44,6.56,11.92,11.92,0,0,1-5.24,15.87,11.42,11.42,0,0,1-5.18,1.24,11.56,11.56,0,0,1-10.44-6.56,11.92,11.92,0,0,1,5.24-15.87,11.42,11.42,0,0,1,5.18-1.24v-1.2m0,0a12.66,12.66,0,0,0-5.72,1.37,13.11,13.11,0,0,0-5.78,17.47,12.83,12.83,0,0,0,11.52,7.23,12.66,12.66,0,0,0,5.72-1.37,13.11,13.11,0,0,0,5.78-17.47,12.83,12.83,0,0,0-11.52-7.23Z" transform="translate(7.3 0.22)"/></g><path class="cls-2" d="M1012,281.26c3.76,4,10.7,3,10.58,3.7s-6.93,2.24-11.1-.78A7.65,7.65,0,0,1,1009,281c-1.66-3.65-.3-7.85.33-7.92S1008.82,277.85,1012,281.26Z" transform="translate(7.3 0.22)"/></g></g><g id="Layer_25" data-name="Layer 25"><path class="cls-63" d="M903,475" transform="translate(7.3 0.22)"/></g><g id="Layer_17" data-name="Layer 17"><path class="cls-64" d="M696,669.94H576.41a13,13,0,0,1-4.83-1.85,5.75,5.75,0,0,1-2.26-4.2c-1.09-64.25,55.3-74.9,55.3-74.9,6.07-1.15,16-3,27.37-1.29,32.76,5,54,36.12,50.93,78.27a2.31,2.31,0,0,1-1,2.76A8.77,8.77,0,0,1,696,669.94Z" transform="translate(7.3 0.22)"/><path class="cls-65" d="M727.2,672.54h-109a14,14,0,0,1-4.41-1.31s-2-1.1-2.06-3c-1-45.16,50.42-52.65,50.42-52.65,5.53-.81,14.57-2.12,25-.91,29.87,3.5,49.19,25.39,46.43,55,.08.14.54,1.11-.9,1.94A10,10,0,0,1,727.2,672.54Z" transform="translate(7.3 0.22)"/><path class="cls-66" d="M644.67,673.4H579.51a6.71,6.71,0,0,1-2.64-1.09,3.43,3.43,0,0,1-1.23-2.47c-.59-37.79,30.15-44.06,30.15-44.06A40.26,40.26,0,0,1,620.7,625c17.86,2.93,29.41,21.25,27.76,46a1.41,1.41,0,0,1-.54,1.63A4.51,4.51,0,0,1,644.67,673.4Z" transform="translate(7.3 0.22)"/><path class="cls-67" d="M748.68,676.42H693.86a5.62,5.62,0,0,1-2.22-1,3,3,0,0,1-1-2.16c-.5-33.13,25.36-38.62,25.36-38.62a32.46,32.46,0,0,1,12.55-.66c15,2.56,24.75,18.62,23.36,40.35a1.26,1.26,0,0,1-.45,1.42A3.68,3.68,0,0,1,748.68,676.42Z" transform="translate(7.3 0.22)"/><path class="cls-68" d="M694.09,676H639.27a6.07,6.07,0,0,1-2.22-.8,2.46,2.46,0,0,1-1-1.81c-.5-27.77,25.36-32.37,25.36-32.37a38.79,38.79,0,0,1,12.55-.56c15,2.15,24.74,15.61,23.35,33.82a1,1,0,0,1-.45,1.2A4.19,4.19,0,0,1,694.09,676Z" transform="translate(7.3 0.22)"/><path class="cls-69" d="M1313.38,574H1237a8.23,8.23,0,0,1-3.09-1.14,3.46,3.46,0,0,1-1.44-2.58c-.7-39.49,35.32-46,35.32-46a52.7,52.7,0,0,1,17.48-.79c20.93,3.06,34.47,22.2,32.54,48.11a1.39,1.39,0,0,1-.63,1.7A5.77,5.77,0,0,1,1313.38,574Z" transform="translate(7.3 0.22)"/><path class="cls-70" d="M1276.41,574h-60.55a8.21,8.21,0,0,1-2.45-.7s-1.12-.59-1.15-1.57c-.55-24.11,28-28.1,28-28.1a54.18,54.18,0,0,1,13.86-.49c16.6,1.87,27.33,13.55,25.8,29.36,0,.08.29.6-.5,1A5.74,5.74,0,0,1,1276.41,574Z" transform="translate(7.3 0.22)"/><path class="cls-71" d="M1300.69,574.92h-32.32a3.78,3.78,0,0,1-1.31-.45,1.39,1.39,0,0,1-.61-1c-.29-15.53,15-18.1,15-18.1a23.73,23.73,0,0,1,7.4-.31c8.86,1.2,14.58,8.72,13.77,18.91a.54.54,0,0,1-.27.67A2.59,2.59,0,0,1,1300.69,574.92Z" transform="translate(7.3 0.22)"/><path class="cls-72" d="M1274.79,577h-27.21a3.74,3.74,0,0,1-1.1-.35,1.08,1.08,0,0,1-.51-.79c-.25-12.06,12.58-14.06,12.58-14.06a22.14,22.14,0,0,1,6.23-.24c7.46.93,12.28,6.78,11.59,14.69,0,0,.13.3-.22.52A2.37,2.37,0,0,1,1274.79,577Z" transform="translate(7.3 0.22)"/></g><g id="statue_one" data-name="statue one"><path class="cls-2" d="M712.69,561.2l-.43.43c-.66.67.33,1.62,1,1a55.77,55.77,0,0,1,6.14-4.56l-.73-1.25-6.88,4.87a.73.73,0,0,0,.56,1.32c2.68-.55,4.76-2.3,6.76-4.07.66-.59-.18-1.44-.88-1.14a27.87,27.87,0,0,0-4.89,2.8.72.72,0,0,0,.73,1.25,4.93,4.93,0,0,0,2.64-3l-1.32.17,2,4.28,1.14-.88a24.49,24.49,0,0,0-2-2.2.73.73,0,0,0-1.14.88,9.84,9.84,0,0,1,1,2.33l1.21-.71a9,9,0,0,1-1.13-1.61l-1.25.74.87,1.24,1.14-.88-.86-.92c-.58-.62-1.51.17-1.14.88a5.66,5.66,0,0,0,.74,1.07l1-1-.14-.34h-1.4a1.48,1.48,0,0,0,2.11.83c1.28-.65,1.41-2.83,1.62-4h-1.4a3.34,3.34,0,0,1,.26,1.56l1.35-.36a2.85,2.85,0,0,1-.37-2l-1.32.18a12.48,12.48,0,0,1,1,2.77c.21.76,1.53.65,1.42-.19-.21-1.64-.33-3.28-.38-4.94l-1.42.2a7,7,0,0,1,.51,3.71l1.33-.18a7.82,7.82,0,0,1-.55-4l-1.35.37a3.55,3.55,0,0,1,.78,2.16h1.45a16.44,16.44,0,0,1,0-3.84l-1.43.2a8.15,8.15,0,0,1,.48,3.63l1.42-.2a10.93,10.93,0,0,1,0-2.8H719.5a2.52,2.52,0,0,0,1.21,2.28.73.73,0,0,0,1.09-.63c-.08-.72-.14-1.44-.16-2.16s-.18-1.7.24-2.24l-1.23-.51a24.49,24.49,0,0,1-1.89,8l1.43.19A20.45,20.45,0,0,1,722,554c.72-1.55,1.75-3,2-4.74.08-.57-.66-.88-1.09-.63a1.79,1.79,0,0,0-1,1.32c-.14.76.9,1.32,1.32.56l3-5.37-1.33-.56a21.09,21.09,0,0,1-3.36,8.08l1.35.36c-.07-1.19,1.07-2.77,1.58-3.82s.91-2,1.46-3c.38-.65,1.08-1.24,1.07-2.05a2.64,2.64,0,0,0-1.12-1.83.73.73,0,0,0-1.21.32c-.66,2.07-1.36,4.12-2.13,6.15a24.91,24.91,0,0,1-2.49,5.66l1.32.56c.64-3.27,2.59-6.45,4-9.42a.72.72,0,0,0-1.25-.73c-2.26,3.54-4.08,7.36-6,11.1l1.35.37c.2-2.26,1.73-4.47,2.78-6.43s2.23-4.06,3.36-6.07l-1.25-.73-7.93,14.52,1.33.56a17.72,17.72,0,0,1,1.56-3.87c.59-1.26,1.21-2.52,1.84-3.77,1.17-2.3,2.7-4.56,3.39-7.08a.73.73,0,0,0-1.21-.7,10.17,10.17,0,0,0-2.07,3.08l-2.22,3.89-4.61,8.08a.73.73,0,0,0,1.14.88c1.5-1.31,2.47-3.07,3.73-4.59a13.61,13.61,0,0,1,4.53-3.8c1.82-.87,3.76-.66,5.66-1.17a7.8,7.8,0,0,0,1-.34c.32-.15.64-.28,1-.4a2.64,2.64,0,0,1,1,.24,1,1,0,0,0,1.07-.52.74.74,0,0,0-.43-1.07c-.69-.11-1.95-.09-2.48-.58l-.87,1.13a5.47,5.47,0,0,0,1.35.55.73.73,0,0,0,.56-1.32,1.74,1.74,0,0,0-.69-.41.74.74,0,0,0-1.07.43c-.25.92-2,1.67-2.79,2.17l-2.88,1.9a11,11,0,0,1-2.83,1.58c-1.7.49-.67-2.23,0-2.75s0-1.78-.73-1.25a9.87,9.87,0,0,0-3.65,4.57.73.73,0,0,0,.69.92,2.74,2.74,0,0,0,2.11-1.3c.91-1.05,1.81-2.12,2.72-3.18l-1.14-.88a39.32,39.32,0,0,1-3.48,4.72c-.56.66-1.15,1.3-1.75,1.92-.4.4-1.56,1.91-2.13,1.86l.37,1.35a22.87,22.87,0,0,1,4.07-1.74l-.71-1.21c-2.42,2.19-5,4.2-7.58,6.2l.88,1.13a43.92,43.92,0,0,0,7.22-8.35.73.73,0,0,0-.62-1.09,2.68,2.68,0,0,0-1.85,1c-.82.83-1.61,1.68-2.41,2.52q-2.32,2.46-4.57,5l1.13.88a20.73,20.73,0,0,1,3.17-4l3.5-3.92,3.5-3.92c.83-.93,2.37-2.08,2.54-3.38a.73.73,0,0,0-1.06-.82,14.84,14.84,0,0,0-3.11,2.54q-1.76,1.65-3.35,3.45a54.29,54.29,0,0,0-5.44,7.37.74.74,0,0,0,.82,1.07c1.2-.29,1.87-1.5,2.57-2.43,1-1.33,1.92-2.69,2.86-4a70.62,70.62,0,0,1,6.16-8l-1-1-6.24,6.8-3,3.22a15.66,15.66,0,0,0-2.77,3.27.73.73,0,0,0,1,1c1.28-.57,2.21-2.32,3.07-3.38l3.48-4.33,6.8-8.46c.57-.71-.37-1.72-1-1a195.58,195.58,0,0,0-14.27,16.57c-.48.65.61,1.5,1.14.87l7.62-9c1.22-1.43,2.45-2.86,3.65-4.3a16.13,16.13,0,0,0,2.78-4c.3-.72-.73-1.15-1.21-.7a144.73,144.73,0,0,0-14.32,15.28l1,1c2.09-2.65,4.2-5.3,6.28-8,1.63-2.09,3.73-4.4,3.6-7.23a.73.73,0,0,0-1.42-.19c-.65,2.41-2.31,4.25-4,6a.73.73,0,0,0,.32,1.21,1.47,1.47,0,0,0,1.36-.42,21.65,21.65,0,0,0,2.25-2.34c1.46-1.58,2.86-3.23,4.2-4.92.57-.71-.36-1.71-1-1l-2.85,3c-.64.68.38,1.71,1,1l2.84-3-1-1c-1.06,1.33-2.14,2.63-3.27,3.89-.52.58-1,1.14-1.57,1.71-.21.21-1.47,1.72-1.57,1.7l.32,1.21c1.83-2,3.63-4,4.35-6.69l-1.42-.19c.12,2.75-2.43,5.25-4,7.26l-5.45,6.91c-.56.72.44,1.75,1,1a144.67,144.67,0,0,1,14.32-15.28l-1.21-.7a17.41,17.41,0,0,1-3.15,4.17c-1.17,1.4-2.36,2.78-3.54,4.17l-7,8.23,1.13.88a190.66,190.66,0,0,1,14-16.27l-1-1-6.5,8.09-3.18,3.95-1.51,1.88c-.53.65-1.09,1.68-1.87,2l1,1a17.15,17.15,0,0,1,2.87-3.34l3-3.22,5.91-6.44c.63-.68-.38-1.71-1-1a62,62,0,0,0-5.41,6.9c-.82,1.18-1.63,2.36-2.46,3.54q-.68,1-1.38,1.92c-.44.58-.94,1.57-1.71,1.76l.82,1.06a51.46,51.46,0,0,1,5.22-7.08c.92-1,1.88-2,2.89-3a15,15,0,0,1,3.27-2.75l-1.06-.81c-.11.76-1,1.47-1.53,2l-1.75,2-3.35,3.75c-2,2.24-4.54,4.46-5.94,7.15-.36.7.57,1.52,1.14.88,1.25-1.38,2.5-2.76,3.78-4.11.63-.68,1.27-1.36,1.92-2,.45-.47,1.44-1.91,2.11-2l-.63-1.09a42.36,42.36,0,0,1-7,8.06c-.6.54.22,1.64.88,1.14,2.68-2.07,5.36-4.15,7.88-6.42a.73.73,0,0,0-.71-1.21,24.47,24.47,0,0,0-4.41,1.88.73.73,0,0,0,.36,1.35c.82.07,1.36-.55,1.92-1.08.89-.84,1.75-1.72,2.56-2.63a43.49,43.49,0,0,0,4.13-5.51c.43-.68-.6-1.51-1.14-.87l-1.81,2.12c-.39.46-1.28,1.93-2,1.93l.7.92a8.12,8.12,0,0,1,3-3.71l-.73-1.25a3.84,3.84,0,0,0-1.63,3.72c.28,1.73,1.56,2.11,3.08,1.55,1.91-.69,3.63-2.14,5.31-3.25,1.28-.84,3.4-1.69,3.84-3.28l-1.06.43a1.74,1.74,0,0,1,.69.41l.55-1.33a2.63,2.63,0,0,1-1-.4c-.7-.38-1.5.56-.88,1.14.83.78,2,.78,3.12,1l-.44-1.07c.48-.13.55-.23.24-.31a1.3,1.3,0,0,0-.54-.16,2.52,2.52,0,0,0-.95.09,23.15,23.15,0,0,1-2.74.91c-2,.3-3.75.37-5.56,1.34a14.88,14.88,0,0,0-4.32,3.66c-1.31,1.57-2.32,3.42-3.87,4.76l1.14.88,4.37-7.65,2-3.51c.66-1.15,1.26-2.77,2.3-3.6l-1.21-.7c-.72,2.66-2.43,5.11-3.66,7.56-1.12,2.25-2.61,4.68-3.13,7.15-.16.77.91,1.31,1.32.56l7.93-14.52c.44-.82-.8-1.55-1.25-.73-1.29,2.29-2.57,4.59-3.81,6.91-1.06,2-2.32,4-2.53,6.32a.73.73,0,0,0,1.35.36c1.92-3.74,3.74-7.56,6-11.1l-1.25-.73c-.83,1.69-1.64,3.4-2.44,5.11a20.44,20.44,0,0,0-1.74,4.66.73.73,0,0,0,1.32.56,24.89,24.89,0,0,0,2.47-5.58c.83-2.17,1.59-4.37,2.3-6.58l-1.21.32c.44.37.76.56.46,1.18-.16.32-.45.62-.64.93-.48.82-.86,1.71-1.26,2.56-.7,1.46-2.07,3.33-2,5a.73.73,0,0,0,1.35.37,22.15,22.15,0,0,0,3.51-8.43c.14-.76-.9-1.31-1.33-.55l-3,5.37,1.33.55.29-.45-1.09-.62a10.68,10.68,0,0,1-1.3,3c-.38.79-.75,1.58-1.08,2.39a20.4,20.4,0,0,0-1.41,5.25c-.11.89,1.14.87,1.42.19a25.61,25.61,0,0,0,1.94-8.37.73.73,0,0,0-1.24-.51c-1.13,1.43-.7,3.75-.51,5.42l1.09-.62a1,1,0,0,1-.49-1c0-1-1.35-.91-1.45,0a12.61,12.61,0,0,0,.07,3.19c.13.86,1.36.56,1.43-.19a9.17,9.17,0,0,0-.53-4,.73.73,0,0,0-1.42.19,16.44,16.44,0,0,0,0,3.84c.11.9,1.48,1,1.45,0a4.78,4.78,0,0,0-1-2.89.73.73,0,0,0-1.35.36,9.4,9.4,0,0,0,.74,4.74.74.74,0,0,0,1.33-.18,8.58,8.58,0,0,0-.51-4.48c-.29-.7-1.45-.69-1.43.19.05,1.66.17,3.3.38,4.94l1.42-.19a13.8,13.8,0,0,0-1.17-3.12.73.73,0,0,0-1.32.17,4.5,4.5,0,0,0,.51,3.07.73.73,0,0,0,1.35-.37,4.35,4.35,0,0,0-.31-2c-.23-.58-1.26-.78-1.4,0-.09.55-.2,1.1-.32,1.64,0,.14-.59,1.63-.61,1.58a.73.73,0,0,0-1.4,0,1.58,1.58,0,0,0,.52,1.75.73.73,0,0,0,1-1,3,3,0,0,1-.51-.77l-1.14.88.86.92c.55.59,1.62-.2,1.14-.88l-.87-1.25a.73.73,0,0,0-1.25.74,11.92,11.92,0,0,0,1.35,1.9c.49.56,1.39,0,1.21-.71a11.27,11.27,0,0,0-1.09-2.67l-1.14.88a23.3,23.3,0,0,1,2,2.2c.54.68,1.46-.19,1.13-.88l-2-4.28c-.29-.61-1.14-.37-1.33.17a3.48,3.48,0,0,1-2,2.14l.73,1.25a27.2,27.2,0,0,1,4.89-2.79l-.88-1.14c-1.81,1.61-3.68,3.19-6.12,3.69l.56,1.33,6.88-4.87c.75-.53.07-1.76-.73-1.25a57.79,57.79,0,0,0-6.44,4.79l1,1,.42-.43c.65-.66-.37-1.69-1-1Z" transform="translate(7.3 0.22)"/><path class="cls-2" d="M721.58,540.15a1.37,1.37,0,0,0-2.29-.12,49.77,49.77,0,0,0-3.13,4L713,548a13.57,13.57,0,0,0-2.4,3.74.73.73,0,0,0,1.21.71A88.19,88.19,0,0,1,723,540.82l-1-1a122.62,122.62,0,0,0-12.62,15.49c-.54.77.7,1.46,1.25.73q3.39-4.5,6.79-9c.51-.68-.56-1.42-1.14-.88a84.33,84.33,0,0,0-9.4,10.58l1.25.73A82.71,82.71,0,0,1,718,545.41l-1-1a130.52,130.52,0,0,0-10.86,12.17l1.25.73c3.07-4.83,7.22-8.84,10.69-13.37.51-.67-.57-1.44-1.14-.88a58.28,58.28,0,0,0-5.1,5.67,54,54,0,0,1-4.76,5.7l1.14.88a121,121,0,0,1,12-14.47l-1.14-.87a6.73,6.73,0,0,1-2,2.32.74.74,0,0,0-.34.81c.4,1,.81,1.94,1.27,2.88.31.63.64,1.61,1.45,1.7,1.56.18,1.53-2.21.24-2.64a1.8,1.8,0,0,0-2,2.54c.92,1.76,2.76-.24,3.12-1.34a.74.74,0,0,0-.5-.89c-.59-.24-1.28-.67-1.92-.36a1.38,1.38,0,0,0-.51.48,1.74,1.74,0,0,0-.18.33c-.15.22-.09.23.19,0l.7.91c.64-1.68,1.29-3.35,1.93-5,.25-.66-.77-1.27-1.21-.71a4,4,0,0,0-.85,3.26c.1.68,1,.61,1.32.17a18.17,18.17,0,0,0,2.24-4.22c.23-.61-.55-1.12-1.07-.82a6.9,6.9,0,0,0-3.11,4,.73.73,0,0,0,1.21.7,17.51,17.51,0,0,1,2.36-1.65l-1.09-.63c0,.73-.79,1.34-1,2a16.19,16.19,0,0,1-.52,2.49l1.32.17a11.66,11.66,0,0,0-1.78-4.6c-.91-1.15-2.13-.65-3,.31l1.23.51a5,5,0,0,1,.33-2.45l-1.07.43,0,.29,1.21.7a4.58,4.58,0,0,1,.51-1.1l-1.32-.56a33.52,33.52,0,0,1-1.64,3.42c-.37.69.61,1.55,1.14.88l3.36-4.23-1.14-.88c-1.51,2.19-3.07,4.35-4.69,6.46l1.25.73a34.38,34.38,0,0,1,4.76-6.89l-1.14-.87c-2.3,4-6.26,6.73-8.31,10.9a.72.72,0,0,0,1.25.73q2.81-3.72,5.59-7.45l-1.25-.73c-1.13,2.36-3.12,4.22-4.7,6.28-.81,1.06-1.58,2.15-2.3,3.27a6.88,6.88,0,0,1-2.33,2.73l.88,1.14q2-2.51,3.9-5.1c.48-.67-.6-1.49-1.14-.88a32.43,32.43,0,0,1-4,3.84l1,1a37.35,37.35,0,0,0,3.49-3.4c.63-.69-.39-1.72-1-1s-1.18,1.26-1.8,1.86c-.38.36-1.42,1.64-1.95,1.36v1.25A36.82,36.82,0,0,0,717.72,539c.36-.83-.77-1.56-1.25-.73a24.41,24.41,0,0,0-1.77,3.59l1.4.39a10.64,10.64,0,0,1,1.66-4,1.81,1.81,0,0,1,1.68-1.05c.78-.07,1.57-.09,2.35-.13A6.46,6.46,0,0,0,723,537l.39,0c.14-.31.19-.33.15,0a6.91,6.91,0,0,1,0,2.18l.09,4.77a.73.73,0,0,0,1.45,0,25,25,0,0,0-.11-5.4c-.12-.91-1.56-.93-1.45,0q.35,2.91.51,5.85l1.42-.2c-.58-2.51-1.1-5-1.54-7.58a.73.73,0,0,0-1.4,0c-.45,2.58-.09,5.37,0,8h1.44l-.5-7.36a.73.73,0,0,0-1.45,0l-.49,6.78h1.45L722,536.7c-.1-.75-1.21-1.06-1.43-.19a51.56,51.56,0,0,0-.81,7.65h1.45l.18-4.41a8.37,8.37,0,0,0-.22-3.7.74.74,0,0,0-1.14-.15A11.82,11.82,0,0,0,717.1,540a.72.72,0,0,0,1.25.73c.81-1.21,1.62-2.43,2.52-3.58l-1.21-.71c-.22,1-.45,2-.67,3a.73.73,0,0,0,1.33.56l.79-1.28-1.33-.17a2.59,2.59,0,0,1,.21.72c0,.34-.36.93.09.79s.2-.26.11-.61l-.2-.74c-.18-.65-.29-1.64-1.06-1.88-1.52-.47-2.26,2.08-2.3,3.14a.73.73,0,0,0,1.35.36,5.61,5.61,0,0,1,1.22-1.48l-1.21-.71-.43,2.5c-.15.91,1.24,1.3,1.4.38l.42-2.49a.73.73,0,0,0-1.21-.71,6.87,6.87,0,0,0-1.44,1.78l1.35.37c0-.47.2-1.64.77-1.78l-.56-.07c.17.08.3,1,.35,1.16a8.81,8.81,0,0,0,.39,1.33,1.2,1.2,0,0,0,1.18.86c1.42-.15,1.35-2.37,1-3.31a.74.74,0,0,0-1.33-.17l-.78,1.28,1.32.56.66-3c.14-.64-.73-1.32-1.21-.71-1,1.25-1.86,2.56-2.74,3.88l1.25.73a10.89,10.89,0,0,1,2.73-3.75l-1.14-.15a4.66,4.66,0,0,1,.06,2l-.07,1.8-.15,3.61c0,.94,1.37.92,1.45,0a49.1,49.1,0,0,1,.76-7.27l-1.42-.19.92,7.21a.73.73,0,0,0,1.45,0l.49-6.78H722l.51,7.36c.06.92,1.47,1,1.44,0l-.09-3.87a19.36,19.36,0,0,1,.07-3.73h-1.4c.45,2.55,1,5.07,1.55,7.59a.73.73,0,0,0,1.42-.19q-.16-2.94-.51-5.85h-1.45a24.38,24.38,0,0,1,.11,5.4h1.45l-.12-6.36c0-.62.1-1.5-.53-1.88s-2.09-.07-2.84,0c-1.54.09-3.53-.18-4.6,1.17a11,11,0,0,0-2.29,5.07.73.73,0,0,0,1.4.39,21.88,21.88,0,0,1,1.62-3.25l-1.25-.73a35.53,35.53,0,0,1-11.87,14.94.73.73,0,0,0,0,1.25,2.16,2.16,0,0,0,2.5-.49,27.06,27.06,0,0,0,3-3l-1-1a41.47,41.47,0,0,1-3.49,3.4c-.71.62.31,1.6,1,1a31.05,31.05,0,0,0,4-3.84l-1.13-.87q-1.77,2.45-3.68,4.8a.73.73,0,0,0,.88,1.14,6.16,6.16,0,0,0,2.28-2.36c.77-1.2,1.56-2.4,2.41-3.55,1.7-2.29,3.92-4.3,5.16-6.89a.72.72,0,0,0-1.25-.73l-5.59,7.45,1.25.73c2-4.16,6-6.91,8.31-10.9.4-.7-.57-1.51-1.13-.88a35.48,35.48,0,0,0-5,7.18.72.72,0,0,0,1.25.73c1.62-2.11,3.18-4.27,4.69-6.46.46-.67-.63-1.53-1.14-.88l-3.35,4.24,1.13.87a39.4,39.4,0,0,0,1.79-3.77c.32-.78-.91-1.22-1.33-.55a6.34,6.34,0,0,0-.66,1.45.73.73,0,0,0,1.21.7,1.59,1.59,0,0,0-.25-2.56.74.74,0,0,0-1.06.43,5.86,5.86,0,0,0-.37,2.84c.06.56.78,1,1.23.51s.63-.61,1.06,0a6.21,6.21,0,0,1,.54,1.17,13.89,13.89,0,0,1,.72,2.46.74.74,0,0,0,1.33.18c.46-.92.32-1.91.67-2.84s1.06-1.39,1.07-2.41a.73.73,0,0,0-1.09-.62,19,19,0,0,0-2.65,1.88l1.21.71a5.33,5.33,0,0,1,2.45-3.15l-1.07-.82a16.53,16.53,0,0,1-2.09,3.88l1.33.17a2.42,2.42,0,0,1,.47-1.84l-1.21-.71q-1,2.52-1.93,5a.72.72,0,0,0,.7.91,1.07,1.07,0,0,0,.93-.5c.06-.08.17-.36.21-.38a5.39,5.39,0,0,1,.89.38l-.5-.9c-.05.15-.63.95-.24.6l.51-.21h-.21l.52.22a4.84,4.84,0,0,1-1-1.7c-.31-.67-.6-1.35-.88-2l-.33.82a8.24,8.24,0,0,0,2.54-2.84.73.73,0,0,0-1.14-.88A123.92,123.92,0,0,0,707,554.55c-.49.69.56,1.44,1.14.88a56.58,56.58,0,0,0,4.76-5.7,57.15,57.15,0,0,1,5.09-5.68l-1.13-.88c-3.47,4.55-7.62,8.54-10.69,13.38-.51.81.71,1.46,1.25.73A130,130,0,0,1,718,545.41c.65-.67-.36-1.69-1-1a85.41,85.41,0,0,0-10.08,12.36c-.53.78.7,1.45,1.25.73a83,83,0,0,1,9.18-10.29l-1.14-.87q-3.39,4.49-6.79,9l1.25.73A121.25,121.25,0,0,1,723,540.82c.67-.68-.31-1.6-1-1a86.35,86.35,0,0,0-11.27,11.67l1.21.7a11,11,0,0,1,1.89-2.94l2.31-2.92,2.18-2.76,1-1.3c.13-.17,1.09-1.13,1-1.37.43.83,1.68.1,1.25-.73Z" transform="translate(7.3 0.22)"/><path class="cls-2" d="M716.6,527.34v-.57l-1.09.63c.2.09-.19,2.25-.17,2.64a14.4,14.4,0,0,1,.08,2.18c-.11,1.88-.26,3.77-.39,5.65h1.45l0-2.44c0-1-1.34-.9-1.45,0a23,23,0,0,1-4.89,12.26c-.6.7.34,1.68,1,1a7,7,0,0,0,1.59-2.29c.3-.69-.54-1.55-1.13-.88-1.68,1.9-3.27,4.15-5.35,5.62a.72.72,0,0,0,.73,1.25,14.2,14.2,0,0,0,4.35-4c1.39-1.81,2.81-3.6,4.19-5.41a5.29,5.29,0,0,0,1.16-2.53c.08-.71-.05-1.42.08-2.12s.42-1.29.56-2a16.92,16.92,0,0,0,.24-3.41c0-.62,0-1.24,0-1.86,0-.25-.23-2.06,0-2.19l-1.07-.43c.56,1.73,2,2.66,3.53,3.56a11.49,11.49,0,0,0,5.8,2l-.7-.92c-.58,1.79-1.05,3.6-.43,5.44a.73.73,0,0,0,1.42-.19,27.06,27.06,0,0,0,.2-4.93l-1.43.19c.48,2,.07,4.1.2,6.16,0,.82.21,1.62.33,2.43a9.78,9.78,0,0,1-.18,3.65l1.42.19a42.17,42.17,0,0,0-2.19-13.46.73.73,0,0,0-1.42.19c-.14,1.8-.24,3.6-.31,5.41h1.45A25.69,25.69,0,0,0,724,535a3,3,0,0,0-.82-2.17.73.73,0,0,0-1.23.51,25.54,25.54,0,0,0-.24,3.26c0,.79,1.3,1,1.42.19a13.42,13.42,0,0,0-.19-5,.73.73,0,0,0-1.39,0c-.3,1.66-.54,3.33-.74,5h1.45a16.82,16.82,0,0,0-.68-4.4.73.73,0,0,0-1.39,0,11.14,11.14,0,0,0-.76,3.5h1.45a12.88,12.88,0,0,0-.58-4.49c-.23-.61-1.24-.76-1.4,0a30.79,30.79,0,0,0-.56,4.16h1.45a21.68,21.68,0,0,0-.54-4.62.73.73,0,0,0-1.4,0,28.54,28.54,0,0,0-.42,3.69h1.45a34,34,0,0,0-.2-3.63.72.72,0,0,0-1.44,0c-.09,1.87-.1,3.73-.06,5.6a.73.73,0,0,0,1.45,0,37.76,37.76,0,0,0-.31-5.72c-.1-.9-1.48-1-1.45,0a55.89,55.89,0,0,0,.52,5.78c.09.64,1,.68,1.32.18l.18-.32a.73.73,0,0,0-1.25-.74l-.18.33,1.33.17a54.13,54.13,0,0,1-.47-5.4h-1.45a36.5,36.5,0,0,1,.31,5.72h1.45c-.05-1.87,0-3.73,0-5.6h-1.44a34,34,0,0,1,.19,3.63.73.73,0,0,0,1.45,0,24.65,24.65,0,0,1,.37-3.31h-1.4a19.49,19.49,0,0,1,.49,4.24.73.73,0,0,0,1.45,0,26.29,26.29,0,0,1,.51-3.77h-1.4a11.6,11.6,0,0,1,.53,4.1.73.73,0,0,0,1.45,0,10.11,10.11,0,0,1,.7-3.11h-1.39a15.46,15.46,0,0,1,.62,4,.73.73,0,0,0,1.45,0c.18-1.55.41-3.09.68-4.62H721.5a11.84,11.84,0,0,1,.19,4.28l1.42.19a27.48,27.48,0,0,1,.23-3.26l-1.23.52c.52.41.46,1.63.52,2.21.06.73.09,1.47.09,2.21a.73.73,0,0,0,1.45,0c.07-1.81.17-3.61.31-5.41l-1.42.2a40.87,40.87,0,0,1,2.14,13.07.73.73,0,0,0,1.42.19,10.75,10.75,0,0,0,.32-3.34c-.1-1-.36-2.07-.42-3.12-.14-2.2.26-4.36-.25-6.54a.73.73,0,0,0-1.42.19,26.19,26.19,0,0,1-.2,4.93l1.42-.19a7.31,7.31,0,0,1,.44-4.67.73.73,0,0,0-.7-.92,9.48,9.48,0,0,1-4.7-1.6c-1.21-.73-2.77-1.49-3.23-2.93a.73.73,0,0,0-1.06-.43,1.87,1.87,0,0,0-.73,1.8c0,1.33.08,2.65.07,4a14,14,0,0,1-.56,3.85c-.38,1.25,0,2.73-.58,3.9a15.33,15.33,0,0,1-2,2.65c-.64.79-1.23,1.62-1.83,2.44a15.52,15.52,0,0,1-4.85,4.86l.73,1.25c2.2-1.56,3.87-3.83,5.64-5.84l-1.14-.88a5.93,5.93,0,0,1-1.36,2l1,1c3.21-3.76,4.72-8.45,5.32-13.29h-1.45l0,2.44a.73.73,0,0,0,1.45,0,47.82,47.82,0,0,0,.4-7.17A17.84,17.84,0,0,1,717,528c0-.7,0-1.5-.74-1.81a.73.73,0,0,0-1.09.62v.57a.73.73,0,0,0,1.45,0Z" transform="translate(7.3 0.22)"/><path class="cls-2" d="M705.83,551.86s0,.08,0,.12l.07-.18a1.23,1.23,0,0,1-.14.25l.12-.15a1.26,1.26,0,0,1-.2.2l.15-.12a3.7,3.7,0,0,1-.43.25,1.83,1.83,0,0,0-.49.39,3.65,3.65,0,0,0-.59.91l1.32.56a1.18,1.18,0,0,1,.07-.2l-.07.17a2,2,0,0,1,.21-.37l-.11.15a4.12,4.12,0,0,1,.67-.65l.89-.76a.71.71,0,0,0,.21-.51.69.69,0,0,0-.15-.44.67.67,0,0,0-.38-.26.73.73,0,0,0-.56.07,21.1,21.1,0,0,0-2,1.71.75.75,0,0,0,0,1,.73.73,0,0,0,1,0,18.24,18.24,0,0,1,1.5-1.29l-.15.12.41-.32-.87-1.13c-.39.32-.79.64-1.17,1a2.8,2.8,0,0,0-.87,1.3.74.74,0,0,0,.42.86.73.73,0,0,0,.91-.3,3.37,3.37,0,0,1,.39-.66l-.12.15a1.24,1.24,0,0,1,.28-.28l-.15.11a2.07,2.07,0,0,1,.32-.19,2.09,2.09,0,0,0,.44-.29,1.83,1.83,0,0,0,.54-.85.73.73,0,0,0-1.4-.39Z" transform="translate(7.3 0.22)"/><path class="cls-73" d="M734.06,523.53" transform="translate(7.3 0.22)"/><path class="cls-74" d="M723,510" transform="translate(7.3 0.22)"/><path class="cls-75" d="M715.21,526.79a15.63,15.63,0,0,1-8.08-3.76,17.89,17.89,0,0,1-6-14.08,18.8,18.8,0,0,1,1.32-6.32A16.35,16.35,0,0,1,718,492a15.78,15.78,0,0,1,12.21,6.58" transform="translate(7.3 0.22)"/><path class="cls-75" d="M730.26,498.38a18.35,18.35,0,0,1,3.71,5.08c4.1,7.89,3.59,17,1.85,21.17-.64,1.56-1.46,2.52-2.55,5.48a5.42,5.42,0,0,1-1.29,2.5c-1.42,1.28-3.65,1-4.78.8-5.46-.85-13.05-5.77-13.34-11.72-.09-2,.66-2.82.14-5.33-.65-3.13-2.31-3.35-2.3-5.66a9.14,9.14,0,0,1,4.59-7.47c1.57-.87,2-.4,3.07-1.25,2.61-2.13.59-6.18,2.43-7.41S728,496.26,730.26,498.38Z" transform="translate(7.3 0.22)"/><path class="cls-76" d="M727.81,548.61a65.58,65.58,0,0,1-1.12-8,64.16,64.16,0,0,1-.16-7.16" transform="translate(7.3 0.22)"/><path class="cls-77" d="M715.07,525.48a37.17,37.17,0,0,1-1.41,15.57c-.1.33-.2.64-.26.8-.66,1.93-2.56,5.78-9.14,10.93" transform="translate(7.3 0.22)"/><path class="cls-75" d="M707.13,523a6.68,6.68,0,0,1-1.35.54c-4.53,1.27-9.51-2.34-11.12-8.06s.78-11.39,5.31-12.66a7,7,0,0,1,2.53-.22,18.8,18.8,0,0,0-1.32,6.32A17.89,17.89,0,0,0,707.13,523Z" transform="translate(7.3 0.22)"/><path class="cls-78" d="M726.88,543.59a75.61,75.61,0,0,1,6.55,3.93,41.29,41.29,0,0,1,7.66,6.28c1.16,1.25,3.06,3.48,3.29,6.07,0,.09,0,.15.06,1,0,0,.11,1.66.31,4.81.38,5.73,2,12.32,1.19,20-.06.55-.15,1.08-.27,1.67-.79,3.79-1.86,5.95-1.31,9.76a19.84,19.84,0,0,0,4.48,9.39c8.66,11.69,8.16,29.53,7.88,39.65a86.33,86.33,0,0,1-.83,9.72l-41,2.16c-2.37-5.06-8.53-19.28-8.53-34.76,0-6.37,0-12.2,3.16-18.59,2-4,3.26-4.28,3.87-7.51,1.08-5.71-1.43-12.71-3-17.21h0l.21-1.68" transform="translate(7.3 0.22)"/><path class="cls-79" d="M731.92,546.65l11.81-.76a4.1,4.1,0,0,1,4.35,3.82l.22,3.39a5.05,5.05,0,0,1-1,3,5.16,5.16,0,0,1-3.5,1.92" transform="translate(7.3 0.22)"/><path class="cls-80" d="M728.56,569.6a8.21,8.21,0,0,1-16.39.82,8.42,8.42,0,0,1,8.61-9A8.32,8.32,0,0,1,728.56,569.6Z" transform="translate(7.3 0.22)"/><path class="cls-81" d="M747.23,566.46a8.24,8.24,0,0,1-7.49,7.74c-4.45.26-7.82-3.62-8.46-7.44-.53-3.17.72-7.16,3.79-8.71a7.64,7.64,0,0,1,5.3-.34,8.58,8.58,0,0,1,4,2.64C745.21,561.21,747.3,563.45,747.23,566.46Z" transform="translate(7.3 0.22)"/><path class="cls-75" d="M714.9,562.35l9.86,16.27a5.8,5.8,0,0,1-2,8l-1.23.75a5.82,5.82,0,0,1-8-2l-14-23.14a5.81,5.81,0,0,1,1.94-8l1.24-.75,1.49-.75" transform="translate(7.3 0.22)"/><path class="cls-74" d="M725.13,510.59a2.83,2.83,0,0,1,.4,1.51,3.29,3.29,0,0,1-.19,1" transform="translate(7.3 0.22)"/><path class="cls-74" d="M722.23,513a14,14,0,0,1-2.58-.77,7,7,0,0,1,2.6-1.44,2.19,2.19,0,0,0-.3,1.09A2.32,2.32,0,0,0,722.23,513Z" transform="translate(7.3 0.22)"/><path class="cls-74" d="M723.51,510.4l0,.06" transform="translate(7.3 0.22)"/><path class="cls-74" d="M722.25,510.74h0" transform="translate(7.3 0.22)"/><path class="cls-74" d="M722.24,513v0" transform="translate(7.3 0.22)"/><path class="cls-74" d="M722.23,513c.24,0,.5.09.76.12a9.12,9.12,0,0,0,2.76-.08" transform="translate(7.3 0.22)"/><path class="cls-74" d="M722.25,510.74a5.57,5.57,0,0,1,.78-.19,7,7,0,0,1,2.52,0" transform="translate(7.3 0.22)"/><path class="cls-82" d="M734.78,510.1" transform="translate(7.3 0.22)"/><path class="cls-83" d="M719.9,508.61a6.36,6.36,0,0,1,3.73-1.76c.41,0,2.9-.28,4,1.13a7.22,7.22,0,0,1,.82,1.8c.21.65.13.75.28,1.16a7.41,7.41,0,0,0,3.82,3.71,1,1,0,0,1,.44.26,1.39,1.39,0,0,1,.19,1.21,1.81,1.81,0,0,1-2.88.84" transform="translate(7.3 0.22)"/><path class="cls-83" d="M725,522.75c.08-.13.64.37,1.43.33.63,0,.75-.39,1.89-.64a1.34,1.34,0,0,1,.79,0c.38.12.42.36.69.38s.44-.36.92-.56a1.87,1.87,0,0,1,1-.08c1,.11,2.07.76,2,1.06s-.51,0-1.39.34-.94.65-1.4.6-.74-.65-1.32-.61c-.25,0-.3.13-.65.29A3.15,3.15,0,0,1,727,524a4.22,4.22,0,0,1-1.27-.47l-.23-.16C725.28,523.17,724.93,522.84,725,522.75Z" transform="translate(7.3 0.22)"/><path class="cls-83" d="M725.48,523.32a2.46,2.46,0,0,0,.21.66,2.78,2.78,0,0,0,.37.58,5,5,0,0,0,4.93,1.05c.31-.12,1.82-.69,2.14-1.94a1.64,1.64,0,0,0,.06-.31" transform="translate(7.3 0.22)"/><path class="cls-74" d="M734.61,505.27a4,4,0,0,0-2.28-.29,3.91,3.91,0,0,0-2.14,1.32" transform="translate(7.3 0.22)"/><path class="cls-84" d="M731.39,509.57a2.76,2.76,0,0,0,.2,1.47,2.71,2.71,0,0,0,.53.81" transform="translate(7.3 0.22)"/><path class="cls-84" d="M734.78,510.6a14.19,14.19,0,0,0,2-1.6,6.65,6.65,0,0,0-2.79-.33,2.08,2.08,0,0,1,.65.85A2.15,2.15,0,0,1,734.78,510.6Z" transform="translate(7.3 0.22)"/><path class="cls-84" d="M732.75,508.82a.17.17,0,0,0,0,.07" transform="translate(7.3 0.22)"/><path class="cls-84" d="M734,508.67h0" transform="translate(7.3 0.22)"/><path class="cls-84" d="M734.78,510.6v0" transform="translate(7.3 0.22)"/><path class="cls-84" d="M731.71,511.9a8.86,8.86,0,0,0,2.44-.92c.23-.12.43-.25.63-.38" transform="translate(7.3 0.22)"/><path class="cls-84" d="M731,509.73a6.51,6.51,0,0,1,2.19-.94,5.3,5.3,0,0,1,.75-.12" transform="translate(7.3 0.22)"/><rect class="cls-85" x="706.43" y="657.15" width="60.35" height="21.72" transform="translate(-34.15 49) rotate(-3.69)"/></g></svg>